<svg xmlns="http://www.w3.org/2000/svg" xmlns:xlink="http://www.w3.org/1999/xlink" viewBox="-13462.938 891 61.877 46.89">
  <defs>
    <style>
      .cls-1 {
        fill: none;
      }

      .cls-2 {
        clip-path: url(#clip-path);
      }

      .cls-3 {
        fill: #050009;
        fill-rule: evenodd;
      }
    </style>
    <clipPath id="clip-path">
      <path id="Path_4623" data-name="Path 4623" class="cls-1" d="M0-23.274H61.877v46.89H0Z" transform="translate(0 23.274)"/>
    </clipPath>
  </defs>
  <g id="Group_5335" data-name="Group 5335" transform="translate(-13462.938 891)">
    <g id="Group_4832" data-name="Group 4832" class="cls-2" transform="translate(0 0)">
      <g id="Group_4815" data-name="Group 4815" transform="translate(24.314 16.859)">
        <path id="Path_4606" data-name="Path 4606" class="cls-3" d="M.583,1.219A.964.964,0,0,1,.2-.671a25.518,25.518,0,0,1,2.6-.395C3.68-1.155,4.56-1.2,5.424-1.2s1.745.046,2.629.135a25.518,25.518,0,0,1,2.6.395.964.964,0,1,1-.387,1.89,23.417,23.417,0,0,0-2.4-.367A24.375,24.375,0,0,0,5.424.733,24.416,24.416,0,0,0,2.983.852a23.588,23.588,0,0,0-2.4.367" transform="translate(0.575 1.201)"/>
      </g>
      <g id="Group_4816" data-name="Group 4816" transform="translate(0 10.976)">
        <path id="Path_4607" data-name="Path 4607" class="cls-3" d="M1.574,7.226a.964.964,0,0,1-1.813.657L-.866,6.156l-.627-1.729A.965.965,0,0,1-.916,3.191l.042-.014L2.591,2.093c.062-.246.129-.49.2-.727l0,0h0c.127-.411.284-.83.459-1.251A13.5,13.5,0,0,1,6.133-4.167a13.7,13.7,0,0,1,2-1.65,13.559,13.559,0,0,1,2.279-1.229.962.962,0,0,1,1.261.514.966.966,0,0,1-.516,1.261A11.593,11.593,0,0,0,9.216-4.215,11.954,11.954,0,0,0,7.5-2.8,11.722,11.722,0,0,0,6.085-1.084,11.6,11.6,0,0,0,5.027.86c-.139.332-.27.7-.389,1.076h0c-.107.349-.2.707-.274,1.064a.968.968,0,0,1-.667.772L.663,4.718l.282.78Z" transform="translate(1.551 7.122)"/>
      </g>
      <g id="Group_4817" data-name="Group 4817" transform="translate(8.083 17.108)">
        <path id="Path_4608" data-name="Path 4608" class="cls-3" d="M.385.383A2.578,2.578,0,0,1,3.971.316l.075.066a2.583,2.583,0,0,1,0,3.657l0,.006a2.578,2.578,0,0,1-3.655,0l0-.006a2.58,2.58,0,0,1,0-3.657l0,0ZM2.212,1.559a.668.668,0,0,0-.467.189l0,0a.662.662,0,0,0,0,.927l0,.006a.672.672,0,0,0,.927,0l.006-.006a.662.662,0,0,0,0-.927l-.03-.034a.669.669,0,0,0-.435-.157" transform="translate(0.379 0.377)"/>
      </g>
      <g id="Group_4818" data-name="Group 4818" transform="translate(10.384 8.521)">
        <path id="Path_4609" data-name="Path 4609" class="cls-3" d="M1.435,1.541a.965.965,0,1,1-1.791.717L-1.345-.194A.965.965,0,0,1-.809-1.449.965.965,0,0,1,.444-.913Z" transform="translate(1.415 1.518)"/>
      </g>
      <g id="Group_4819" data-name="Group 4819" transform="translate(40.561 36.457)">
        <path id="Path_4610" data-name="Path 4610" class="cls-3" d="M2.765.619A.965.965,0,1,1,4.621.091L6.335,6.1a.964.964,0,0,1-.439,1.1l-3.7,2.468A.968.968,0,0,1,.861,9.4L-2.547,4.606A.965.965,0,0,1-2.32,3.262.967.967,0,0,1-.974,3.49L1.9,7.539,4.286,5.95Z" transform="translate(2.725 0.61)"/>
      </g>
      <g id="Group_4820" data-name="Group 4820" transform="translate(49.953 15.961)">
        <path id="Path_4611" data-name="Path 4611" class="cls-3" d="M.974,3a.967.967,0,0,1-.967.965A.966.966,0,0,1-.96,3,5.952,5.952,0,0,1,.785-1.209l0,0,0,0,0,0A5.944,5.944,0,0,1,5-2.96a.967.967,0,0,1,.967.967A.967.967,0,0,1,5-1.026,4.011,4.011,0,0,0,2.153.151l0,0A4.011,4.011,0,0,0,.974,3" transform="translate(0.96 2.96)"/>
      </g>
      <g id="Group_4821" data-name="Group 4821" transform="translate(54.947 15.961)">
        <path id="Path_4612" data-name="Path 4612" class="cls-3" d="M3.49,3A.967.967,0,1,1,1.556,3,4.033,4.033,0,0,0,.382.155l-.006,0A4.027,4.027,0,0,0-2.473-1.026a.967.967,0,0,1-.967-.967.967.967,0,0,1,.967-.967A5.953,5.953,0,0,1,1.74-1.215l0,.006A5.947,5.947,0,0,1,3.49,3" transform="translate(3.44 2.96)"/>
      </g>
      <g id="Group_4822" data-name="Group 4822" transform="translate(23.272 11.663)">
        <path id="Path_4613" data-name="Path 4613" class="cls-3" d="M1.332,16.263l-.715-1.1a.965.965,0,0,0,.715,1.1m15.237-3.731a.965.965,0,1,1,.822,1.747,24.14,24.14,0,0,1-3.3,1.271,25.87,25.87,0,0,1-3.51.808c-.395.062-.756.115-1.062.151-.351.042-.713.079-1.08.107-.324.024-.7.046-1.1.062-.425.016-.794.026-1.1.026a27.891,27.891,0,0,1-2.808-.147c-.693-.068-1.368-.163-2.021-.278l-.071-.016C.681,16.144.036,16-.59,15.842a.965.965,0,0,1-.691-1.175.965.965,0,0,1,1.175-.691c.594.153,1.191.286,1.781.393l.06.006q.958.172,1.878.264a25.815,25.815,0,0,0,2.619.131c.4,0,.751-.006,1.029-.018h0c.3-.01.645-.034,1.019-.06.33-.026.669-.062,1-.1.379-.046.709-.093.987-.135a23.663,23.663,0,0,0,3.252-.749,22.37,22.37,0,0,0,3.042-1.175m9.413-14.57a.965.965,0,0,1,.836-1.076A.964.964,0,0,1,27.9-2.28c.038.3.068.6.087.888.02.32.032.621.032.893a13.624,13.624,0,0,1-.089,1.533,14.414,14.414,0,0,1-.258,1.519,14.471,14.471,0,0,1-.816,2.506,15.49,15.49,0,0,1-1.285,2.371.963.963,0,1,1-1.61-1.058A13.386,13.386,0,0,0,25.076,4.3a12.362,12.362,0,0,0,.711-2.17,11.953,11.953,0,0,0,.22-1.308A12.145,12.145,0,0,0,26.078-.5c0-.282-.008-.542-.022-.77v0c-.016-.262-.042-.52-.075-.766M20.3-13.638l.371.729a.969.969,0,0,0-.371-.729m-5.208-.528a.964.964,0,0,1-.552-1.245.966.966,0,0,1,1.247-.552c.284.111.55.218.792.32s.5.218.772.347c.256.121.508.244.749.369s.492.258.733.393c.226.127.465.268.711.417l0,0,0,0c.258.157.494.306.691.439l.058.04c.185.125.387.264.6.415l0,0c.177.127.393.292.649.488s.5.4.727.594l.018.018c.212.183.433.387.663.6l0,0c.212.2.429.415.649.641l.054.064c.212.22.4.429.562.614a.965.965,0,0,1-.1,1.36.966.966,0,0,1-1.36-.1c-.181-.208-.351-.4-.506-.562l-.042-.04c-.179-.183-.373-.379-.582-.574l0,0h0c-.183-.173-.389-.357-.61-.548l-.006-.006c-.22-.187-.439-.369-.659-.54-.147-.113-.347-.26-.588-.433l0,0,0,0c-.161-.115-.342-.24-.542-.373l-.062-.038c-.232-.157-.441-.29-.623-.4v0c-.2-.119-.415-.248-.649-.377s-.445-.246-.675-.363-.459-.232-.687-.338c-.212-.1-.447-.2-.711-.316s-.5-.21-.731-.3" transform="translate(1.312 16.028)"/>
      </g>
      <g id="Group_4823" data-name="Group 4823" transform="translate(10.381 8.518)">
        <path id="Path_4614" data-name="Path 4614" class="cls-3" d="M.487.974A.969.969,0,0,1-.48.007.967.967,0,0,1,.487-.96c.437,0,.895.024,1.364.071s.907.117,1.346.205a13.173,13.173,0,0,1,1.277.328A12.977,12.977,0,0,1,5.723.1l0,0,0,0c.409.173.8.363,1.169.562L6.964.7c.357.2.705.409,1.044.641l0,0a12.6,12.6,0,0,1,1.038.774c.34.282.661.574.955.866s.574.606.866.961.544.689.776,1.029a.966.966,0,0,1-1.6,1.082c-.218-.32-.439-.616-.661-.886a10.665,10.665,0,0,0-.747-.818q-.408-.408-.82-.747a10.55,10.55,0,0,0-.886-.661l0,0h0c-.284-.193-.582-.377-.89-.546L5.975,2.36c-.336-.181-.675-.345-1-.486v0c-.338-.141-.7-.27-1.064-.385a10.8,10.8,0,0,0-1.1-.284c-.377-.077-.764-.135-1.15-.175C1.3.994.9.974.487.974" transform="translate(0.48 0.96)"/>
      </g>
      <g id="Group_4824" data-name="Group 4824" transform="translate(23.101 -0.001)">
        <path id="Path_4615" data-name="Path 4615" class="cls-3" d="M6.2,1.063a7.2,7.2,0,0,1,0,10.192l0,0v0h0A7.185,7.185,0,0,1,1.1,13.373a7.211,7.211,0,1,1,0-14.421A7.193,7.193,0,0,1,6.2,1.063m.179,5.1A5.279,5.279,0,0,0,1.1.886a5.276,5.276,0,1,0,0,10.553A5.257,5.257,0,0,0,4.832,9.9l0-.006A5.253,5.253,0,0,0,6.379,6.163" transform="translate(6.11 1.048)"/>
      </g>
      <g id="Group_4825" data-name="Group 4825" transform="translate(10.794 32.549)">
        <path id="Path_4616" data-name="Path 4616" class="cls-3" d="M.058.715A.964.964,0,1,1,1.756-.2,14.806,14.806,0,0,0,3.114,1.894,13.675,13.675,0,0,0,4.885,3.75.964.964,0,0,1,3.616,5.2,15.881,15.881,0,0,1,1.6,3.087,16.475,16.475,0,0,1,.058.715" transform="translate(0.057 0.705)"/>
      </g>
      <g id="Group_4826" data-name="Group 4826" transform="translate(2.506 28.14)">
        <path id="Path_4617" data-name="Path 4617" class="cls-3" d="M.487.974A.967.967,0,0,1-.48.007.967.967,0,0,1,.487-.96c.147,0,.334.006.558.018l.036,0c.181.01.355.024.522.04.222.02.407.046.552.068s.324.054.538.1c.161.032.342.075.528.123l.006,0v0c.185.048.365.1.518.147s.334.109.51.171l0,0v0c.151.056.312.123.49.2v0c.153.064.316.137.49.222l.054.028c.151.075.292.145.413.212l.008,0v0c.145.081.3.167.447.258l.058.04c.149.089.278.173.391.248l.028.02.389.276.02.016,0,0c.107.081.24.185.4.322s.3.248.4.347.244.228.377.363l0,0c.077.079.193.2.361.387l0,0c.1.107.214.24.342.4.113.139.224.28.326.417l.016.018.274.389A.964.964,0,1,1,7.986,4.971l-.274-.389-.258-.326-.282-.32,0,0,0,0-.3-.312h0l0,0c-.089-.091-.2-.193-.31-.3-.129-.119-.238-.212-.326-.286l-.345-.266h0l-.365-.26-.3-.2-.054-.032-.381-.218-.338-.177L4.4,1.861c-.119-.056-.254-.117-.4-.177H4l0,0c-.117-.05-.256-.1-.4-.161h0l-.421-.143c-.157-.048-.3-.089-.431-.121v0c-.129-.034-.274-.068-.435-.1l-.439-.077c-.185-.028-.342-.05-.453-.062C1.267,1,1.118.99.983.984H.948C.836.978.68.974.487.974" transform="translate(0.48 0.96)"/>
      </g>
      <g id="Group_4827" data-name="Group 4827" transform="translate(12.489 36.766)">
        <path id="Path_4618" data-name="Path 4618" class="cls-3" d="M3.74,2.027A.965.965,0,0,1,5.273,3.2L1.79,7.749A.966.966,0,0,1,.454,7.94L-3.259,5.464a.965.965,0,0,1-.379-1.1L-2-1.3A.965.965,0,0,1-.8-1.96.964.964,0,0,1-.149-.765L-1.6,4.253.806,5.859Z" transform="translate(3.686 1.998)"/>
      </g>
      <g id="Group_4828" data-name="Group 4828" transform="translate(56.196 20.957)">
        <path id="Path_4619" data-name="Path 4619" class="cls-3" d="M1.887.487a.967.967,0,1,1,1.934,0,4.7,4.7,0,0,1-1.38,3.332A4.7,4.7,0,0,1-.893,5.2a.968.968,0,0,1-.967-.969.967.967,0,0,1,.967-.965,2.78,2.78,0,0,0,1.966-.814A2.78,2.78,0,0,0,1.887.487" transform="translate(1.86 0.48)"/>
      </g>
      <g id="Group_4829" data-name="Group 4829" transform="translate(53.699 22.207)">
        <path id="Path_4620" data-name="Path 4620" class="cls-3" d="M0,.486a.967.967,0,0,1,1.934,0A1.534,1.534,0,0,0,3.465,2.017a.967.967,0,0,1,0,1.934A3.466,3.466,0,0,1,1.013,2.938,3.458,3.458,0,0,1,0,.486" transform="translate(0 0.479)"/>
      </g>
      <g id="Group_4830" data-name="Group 4830" transform="translate(53.7 20.956)">
        <path id="Path_4621" data-name="Path 4621" class="cls-3" d="M.974,1.116a.969.969,0,0,1-.967.967A.967.967,0,0,1-.96,1.116,2.215,2.215,0,0,1,1.254-1.1a.968.968,0,0,1,.967.969.966.966,0,0,1-.967.965.277.277,0,0,0-.2.083.285.285,0,0,0-.083.2" transform="translate(0.96 1.1)"/>
      </g>
      <g id="Group_4831" data-name="Group 4831" transform="translate(26.847 3.745)">
        <path id="Path_4622" data-name="Path 4622" class="cls-3" d="M1.745,0a.967.967,0,0,1,0,1.934,1.527,1.527,0,0,0-1.082.449l-.036.032a1.536,1.536,0,0,0-.413,1.05.969.969,0,0,1-.967.967.969.969,0,0,1-.967-.967A3.46,3.46,0,0,1-.763,1.078L-.7,1.015A3.439,3.439,0,0,1,1.745,0" transform="translate(1.72)"/>
      </g>
    </g>
  </g>
</svg>
