<svg xmlns="http://www.w3.org/2000/svg" xmlns:xlink="http://www.w3.org/1999/xlink" viewBox="1117 1259 118 113.841"><defs><style>.a,.c{fill:none;}.b{clip-path:url(#a);}.c{stroke:#007eff;stroke-width:0.168px;}.d{clip-path:url(#b);}.e{fill:#d9f0ff;}.f{clip-path:url(#c);}.g{fill:#007eff;}</style><clipPath id="a"><path class="a" d="M4.716-45.091A45.478,45.478,0,0,0,26.053-6.533h0V-10.09h3.455V-47.033s2.236-8.87,12.8-13.6h0V-89.909A45.522,45.522,0,0,0,4.716-45.091" transform="translate(-4.716 89.909)"/></clipPath><clipPath id="b"><path class="a" d="M69.626-34.906c0,17.7-7.316,17.486-7.316,17.486h0v5.86h6.3v5.937A45.617,45.617,0,0,0,92.7-34.906H69.626Z" transform="translate(-62.31 34.906)"/></clipPath><clipPath id="c"><path class="a" d="M0-110.875H118V2.966H0Z" transform="translate(0 110.875)"/></clipPath></defs><g transform="translate(1117 1259)"><g class="b" transform="translate(4.842 21.527)"><g transform="translate(-4.842 -2.024)"><path class="c" d="M0,0H98.7"/></g><g transform="translate(-4.842 -0.081)"><path class="c" d="M0,0H98.7"/></g><g transform="translate(-4.842 1.862)"><path class="c" d="M0,0H98.7"/></g><g transform="translate(-4.842 3.805)"><path class="c" d="M0,0H98.7"/></g><g transform="translate(-4.842 5.747)"><path class="c" d="M0,0H98.7"/></g><g transform="translate(-4.842 7.689)"><path class="c" d="M0,0H98.7"/></g><g transform="translate(-4.842 9.633)"><path class="c" d="M0,0H98.7"/></g><g transform="translate(-4.842 11.576)"><path class="c" d="M0,0H98.7"/></g><g transform="translate(-4.842 13.519)"><path class="c" d="M0,0H98.7"/></g><g transform="translate(-4.842 15.461)"><path class="c" d="M0,0H98.7"/></g><g transform="translate(-4.842 17.403)"><path class="c" d="M0,0H98.7"/></g><g transform="translate(-4.842 19.347)"><path class="c" d="M0,0H98.7"/></g><g transform="translate(-4.842 21.29)"><path class="c" d="M0,0H98.7"/></g><g transform="translate(-4.842 23.232)"><path class="c" d="M0,0H98.7"/></g><g transform="translate(-4.842 25.174)"><path class="c" d="M0,0H98.7"/></g><g transform="translate(-4.842 27.117)"><path class="c" d="M0,0H98.7"/></g><g transform="translate(-4.842 29.06)"><path class="c" d="M0,0H98.7"/></g><g transform="translate(-4.842 31.003)"><path class="c" d="M0,0H98.7"/></g><g transform="translate(-4.842 32.946)"><path class="c" d="M0,0H98.7" transform="translate(0 0)"/></g><g transform="translate(-4.842 34.888)"><path class="c" d="M0,0H98.7" transform="translate(0 0)"/></g><g transform="translate(-4.842 36.83)"><path class="c" d="M0,0H98.7" transform="translate(0 0)"/></g><g transform="translate(-4.842 38.774)"><path class="c" d="M0,0H98.7" transform="translate(0 0)"/></g><g transform="translate(-4.842 40.717)"><path class="c" d="M0,0H98.7"/></g><g transform="translate(-4.842 42.66)"><path class="c" d="M0,0H98.7"/></g><g transform="translate(-4.842 44.602)"><path class="c" d="M0,0H98.7"/></g><g transform="translate(-4.842 46.544)"><path class="c" d="M0,0H98.7"/></g><g transform="translate(-4.842 48.488)"><path class="c" d="M0,0H98.7"/></g><g transform="translate(-4.842 50.431)"><path class="c" d="M0,0H98.7"/></g><g transform="translate(-4.842 52.373)"><path class="c" d="M0,0H98.7"/></g><g transform="translate(-4.842 54.315)"><path class="c" d="M0,0H98.7"/></g><g transform="translate(-4.842 56.258)"><path class="c" d="M0,0H98.7"/></g><g transform="translate(-4.842 58.202)"><path class="c" d="M0,0H98.7"/></g><g transform="translate(-4.842 60.144)"><path class="c" d="M0,0H98.7"/></g><g transform="translate(-4.842 62.086)"><path class="c" d="M0,0H98.7"/></g><g transform="translate(-4.842 64.029)"><path class="c" d="M0,0H98.7"/></g><g transform="translate(-4.842 65.972)"><path class="c" d="M0,0H98.7"/></g><g transform="translate(-4.842 67.915)"><path class="c" d="M0,0H98.7"/></g><g transform="translate(-4.842 69.857)"><path class="c" d="M0,0H98.7"/></g><g transform="translate(-4.842 71.8)"><path class="c" d="M0,0H98.7"/></g><g transform="translate(-4.842 73.743)"><path class="c" d="M0,0H98.7"/></g><g transform="translate(-4.842 75.686)"><path class="c" d="M0,0H98.7"/></g><g transform="translate(-4.842 77.629)"><path class="c" d="M0,0H98.7"/></g><g transform="translate(-4.842 79.571)"><path class="c" d="M0,0H98.7"/></g><g transform="translate(-4.842 81.514)"><path class="c" d="M0,0H98.7"/></g><g transform="translate(-4.842 83.457)"><path class="c" d="M0,0H98.7"/></g><g transform="translate(-4.842 85.399)"><path class="c" d="M0,0H98.7"/></g></g><g class="d" transform="translate(63.977 78.001)"><g transform="translate(-44.673 -2.159)"><path class="c" d="M0,0H98.7" transform="translate(0)"/></g><g transform="translate(-44.673 -0.216)"><path class="c" d="M0,0H98.7" transform="translate(0)"/></g><g transform="translate(-44.673 1.727)"><path class="c" d="M0,0H98.7" transform="translate(0)"/></g><g transform="translate(-44.673 3.67)"><path class="c" d="M0,0H98.7" transform="translate(0)"/></g><g transform="translate(-44.673 5.612)"><path class="c" d="M0,0H98.7" transform="translate(0)"/></g><g transform="translate(-44.673 7.555)"><path class="c" d="M0,0H98.7" transform="translate(0)"/></g><g transform="translate(-44.673 9.498)"><path class="c" d="M0,0H98.7" transform="translate(0)"/></g><g transform="translate(-44.673 11.44)"><path class="c" d="M0,0H98.7" transform="translate(0)"/></g><g transform="translate(-44.673 13.383)"><path class="c" d="M0,0H98.7" transform="translate(0)"/></g><g transform="translate(-44.673 15.326)"><path class="c" d="M0,0H98.7" transform="translate(0)"/></g><g transform="translate(-44.673 17.269)"><path class="c" d="M0,0H98.7" transform="translate(0)"/></g><g transform="translate(-44.673 19.212)"><path class="c" d="M0,0H98.7" transform="translate(0)"/></g><g transform="translate(-44.673 21.154)"><path class="c" d="M0,0H98.7" transform="translate(0)"/></g><g transform="translate(-44.673 23.097)"><path class="c" d="M0,0H98.7" transform="translate(0)"/></g><g transform="translate(-44.673 25.04)"><path class="c" d="M0,0H98.7" transform="translate(0)"/></g><g transform="translate(-44.673 26.983)"><path class="c" d="M0,0H98.7" transform="translate(0)"/></g><g transform="translate(-44.673 28.925)"><path class="c" d="M0,0H98.7" transform="translate(0)"/></g></g><g transform="translate(43.197 2.139)"><path class="e" d="M.41,0V15.829H-15.334Z" transform="translate(15.334)"/></g><g transform="translate(26.179 101.098)"><path class="e" d="M0,.006V12.5H43.372V-.242Z" transform="translate(0 0.242)"/></g><g class="f"><g transform="translate(24.768 0.001)"><path class="g" d="M2.022,1.948A1.03,1.03,0,0,1,.995,2.975h-44.17c-.067-.133-.132-.274-.2-.4l7.7-8.288a10.644,10.644,0,0,0,3.044-8.291c-.526-5.07-5.013-8.456-5.2-8.6l-1.055-.783L-56.331-6.341V-54.758a2.776,2.776,0,0,1,.739-1.74L-42.6-69.04a2.938,2.938,0,0,1,1.766-.713H.995a1.03,1.03,0,0,1,1.027,1.027ZM-30.407,11.1c0,6.962-6.111,9.635-6.366,9.743l-.95.394v5.392H-69.038V-7.378c0-5.262,5.664-9.989,9.627-12.655v16.7L-62.286-.522l2.152,2.2L-38.7-19.261a9.85,9.85,0,0,1,3.009,5.573,7.675,7.675,0,0,1-2.261,5.9L-47.259,2.227l.692,1.015c.217.319,5.247,7.893-1.307,14.614l2.206,2.151A14.1,14.1,0,0,0-42.005,6.055h11.6ZM.995-72.833h-41.83a6,6,0,0,0-3.906,1.577L-57.732-58.714a5.837,5.837,0,0,0-1.68,3.956V-23.7c-4.264,2.606-12.707,8.724-12.707,16.322V26.633h-3.465V41.008h3.08V29.713h40.043V41.008h3.08V26.633h-5.262V23.219A13.736,13.736,0,0,0-27.327,11.1V6.055H.995A4.112,4.112,0,0,0,5.1,1.948V-68.726A4.112,4.112,0,0,0,.995-72.833" transform="translate(75.584 72.833)"/></g><g transform="translate(48.127 7.059)"><path class="g" d="M.324,0h-3.08V9.241h-9.369v3.08H.324Z" transform="translate(12.125)"/></g><path class="g" d="M53.623-83.17H90.329v-3.08H53.623Z" transform="translate(1.434 111.534)"/><path class="g" d="M53.623-76.17H90.329v-3.08H53.623Z" transform="translate(1.434 111.721)"/><path class="g" d="M53.623-69.17H75.57v-3.08H53.623Z" transform="translate(1.434 111.908)"/><path class="g" d="M31.248-3.281h5.39V-6.875h-5.39Z" transform="translate(0.836 113.657)"/></g></g></svg>