<svg id="Lock" xmlns="http://www.w3.org/2000/svg" width="18.465" height="18.466" viewBox="0 0 18.465 18.466">
  <rect id="Rectangle_118" data-name="Rectangle 118" width="18.466" height="18.466" transform="translate(0 0)" fill="none"/>
  <path id="Path_49" data-name="Path 49" d="M8.079,9.233a2.308,2.308,0,1,1-2.308,2.308A2.315,2.315,0,0,1,8.079,9.233Zm0-6.925A2.315,2.315,0,0,0,5.771,4.616h4.616A2.315,2.315,0,0,0,8.079,2.308Zm5.771,16.158H2.308A2.315,2.315,0,0,1,0,16.158V6.925A2.315,2.315,0,0,1,2.308,4.616H3.462a4.616,4.616,0,1,1,9.233,0h1.154a2.315,2.315,0,0,1,2.308,2.308v9.233A2.315,2.315,0,0,1,13.849,18.466Z" transform="translate(1.154 0)" fill="#007eff" fill-rule="evenodd"/>
</svg>
