<svg xmlns="http://www.w3.org/2000/svg" xmlns:xlink="http://www.w3.org/1999/xlink" viewBox="15121.627 516.816 150.595 177.988"><defs><style>.a,.e{fill:none;}.b{clip-path:url(#a);}.c{fill:#007eff;}.d{clip-path:url(#b);}.e{stroke:#007eff;stroke-width:0.131px;}.f{fill:#f1f1f1;}.g{fill:#d9f0ff;}</style><clipPath id="a"><path class="a" d="M0-113.285H150.6V64.7H0Z" transform="translate(0 113.285)"/></clipPath><clipPath id="b"><path class="a" d="M5.029-60.817A52.4,52.4,0,0,0,55.439-8.46h0V-70.474S52.828-84.608,77.109-82.765h27.91A52.4,52.4,0,0,0,57.433-113.22h0a52.4,52.4,0,0,0-52.4,52.4" transform="translate(-5.029 113.22)"/></clipPath></defs><g transform="translate(15121.627 516.816)"><g class="b"><g transform="translate(72.219 50.1)"><path class="c" d="M2.318,3.381V6.654Q4.4,6.564,4.4,5.127q0-1.185-2.079-1.746m-1.312-4V-3.449q-2.138.1-2.138,1.342a1.029,1.029,0,0,0,.354.74A4.866,4.866,0,0,0,1.006-.62m0,7.146V3.009A8.481,8.481,0,0,1-2.768,1.185,3.489,3.489,0,0,1-3.812-1.329,3.54,3.54,0,0,1-2.521-4.178,5.857,5.857,0,0,1,1.006-5.389V-5.92H2.318V-5.4A6.09,6.09,0,0,1,5.855-4.266a3.117,3.117,0,0,1,1.28,2.542c0,.126,0,.233-.009.325H4.053a1.75,1.75,0,0,0-.463-1.32,2.447,2.447,0,0,0-1.271-.611v3.1A8.812,8.812,0,0,1,6.388,1.824a3.954,3.954,0,0,1,.995,2.622A3.764,3.764,0,0,1,6.121,7.254a5.607,5.607,0,0,1-3.8,1.262V10H1.006V8.465A6.4,6.4,0,0,1-2.945,7.037,3.353,3.353,0,0,1-4.059,4.693c0-.074.009-.2.03-.385H-.805A2.053,2.053,0,0,0,1.006,6.525" transform="translate(4.059 5.92)"/></g></g><g class="d" transform="translate(7.901 0.102)"><g transform="translate(-7.901 0)"><path class="e" d="M0,0H118.176"/></g><g transform="translate(-7.901 2.325)"><path class="e" d="M0,0H118.176"/></g><g transform="translate(-7.901 4.653)"><path class="e" d="M0,0H118.176"/></g><g transform="translate(-7.901 6.98)"><path class="e" d="M0,0H118.176"/></g><g transform="translate(-7.901 9.305)"><path class="e" d="M0,0H118.176"/></g><g transform="translate(-7.901 11.631)"><path class="e" d="M0,0H118.176"/></g><g transform="translate(-7.901 13.958)"><path class="e" d="M0,0H118.176"/></g><g transform="translate(-7.901 16.284)"><path class="e" d="M0,0H118.176"/></g><g transform="translate(-7.901 18.61)"><path class="e" d="M0,0H118.176"/></g><g transform="translate(-7.901 20.936)"><path class="e" d="M0,0H118.176"/></g><g transform="translate(-7.901 23.262)"><path class="e" d="M0,0H118.176"/></g><g transform="translate(-7.901 25.588)"><path class="e" d="M0,0H118.176"/></g><g transform="translate(-7.901 27.915)"><path class="e" d="M0,0H118.176"/></g><g transform="translate(-7.901 30.24)"><path class="e" d="M0,0H118.176"/></g><g transform="translate(-7.901 32.567)"><path class="e" d="M0,0H118.176"/></g><g transform="translate(-7.901 34.893)"><path class="e" d="M0,0H118.176"/></g><g transform="translate(-7.901 37.219)"><path class="e" d="M0,0H118.176"/></g><g transform="translate(-7.901 39.545)"><path class="e" d="M0,0H118.176"/></g><g transform="translate(-7.901 41.871)"><path class="e" d="M0,0H118.176"/></g><g transform="translate(-7.901 44.197)"><path class="e" d="M0,0H118.176"/></g><g transform="translate(-7.901 46.523)"><path class="e" d="M0,0H118.176"/></g><g transform="translate(-7.901 48.849)"><path class="e" d="M0,0H118.176"/></g><g transform="translate(-7.901 51.176)"><path class="e" d="M0,0H118.176"/></g><g transform="translate(-7.901 53.504)"><path class="e" d="M0,0H118.176"/></g><g transform="translate(-7.901 55.829)"><path class="e" d="M0,0H118.176"/></g><g transform="translate(-7.901 58.153)"><path class="e" d="M0,0H118.176"/></g><g transform="translate(-7.901 60.481)"><path class="e" d="M0,0H118.176"/></g><g transform="translate(-7.901 62.808)"><path class="e" d="M0,0H118.176"/></g><g transform="translate(-7.901 65.133)"><path class="e" d="M0,0H118.176"/></g><g transform="translate(-7.901 67.459)"><path class="e" d="M0,0H118.176"/></g><g transform="translate(-7.901 69.786)"><path class="e" d="M0,0H118.176"/></g><g transform="translate(-7.901 72.112)"><path class="e" d="M0,0H118.176"/></g><g transform="translate(-7.901 74.438)"><path class="e" d="M0,0H118.176"/></g><g transform="translate(-7.901 76.763)"><path class="e" d="M0,0H118.176"/></g><g transform="translate(-7.901 79.091)"><path class="e" d="M0,0H118.176"/></g><g transform="translate(-7.901 81.417)"><path class="e" d="M0,0H118.176"/></g><g transform="translate(-7.901 83.743)"><path class="e" d="M0,0H118.176"/></g><g transform="translate(-7.901 86.069)"><path class="e" d="M0,0H118.176"/></g><g transform="translate(-7.901 88.395)"><path class="e" d="M0,0H118.176"/></g><g transform="translate(-7.901 90.721)"><path class="e" d="M0,0H118.176"/></g><g transform="translate(-7.901 93.048)"><path class="e" d="M0,0H118.176"/></g><g transform="translate(-7.901 95.373)"><path class="e" d="M0,0H118.176"/></g><g transform="translate(-7.901 97.699)"><path class="e" d="M0,0H118.176"/></g><g transform="translate(-7.901 100.026)"><path class="e" d="M0,0H118.176"/></g><g transform="translate(-7.901 102.354)"><path class="e" d="M0,0H118.176"/></g><g transform="translate(-7.901 104.677)"><path class="e" d="M0,0H118.176"/></g></g><g class="b"><g transform="translate(127.839 33.156)"><path class="f" d="M0,4.859H21.207S22.59-8.508,11.218-8.508,0,4.859,0,4.859" transform="translate(0 8.508)"/></g><g transform="translate(92.097 53.379)"><path class="c" d="M8.873.521A1.438,1.438,0,0,1,7.437,1.957H-14.1A1.44,1.44,0,0,1-15.535.521,1.44,1.44,0,0,1-14.1-.913H7.437A1.438,1.438,0,0,1,8.873.521" transform="translate(15.535 0.913)"/></g><g transform="translate(92.096 60.557)"><path class="c" d="M5.742.522A1.44,1.44,0,0,1,4.306,1.958H-8.617A1.441,1.441,0,0,1-10.053.522,1.442,1.442,0,0,1-8.617-.914H4.306A1.441,1.441,0,0,1,5.742.522" transform="translate(10.053 0.914)"/></g><g transform="translate(92.097 72.043)"><path class="c" d="M8.873.522A1.439,1.439,0,0,1,7.437,1.958H-14.1A1.441,1.441,0,0,1-15.535.522,1.442,1.442,0,0,1-14.1-.914H7.437A1.44,1.44,0,0,1,8.873.522" transform="translate(15.535 0.914)"/></g><g transform="translate(92.096 79.222)"><path class="c" d="M5.742.522A1.44,1.44,0,0,1,4.306,1.958H-8.617A1.441,1.441,0,0,1-10.053.522,1.441,1.441,0,0,1-8.617-.914H4.306A1.44,1.44,0,0,1,5.742.522" transform="translate(10.053 0.914)"/></g><g transform="translate(92.097 90.708)"><path class="c" d="M8.873.522A1.439,1.439,0,0,1,7.437,1.958H-14.1A1.441,1.441,0,0,1-15.535.522,1.441,1.441,0,0,1-14.1-.914H7.437A1.439,1.439,0,0,1,8.873.522" transform="translate(15.535 0.914)"/></g><g transform="translate(92.096 97.887)"><path class="c" d="M5.742.522A1.438,1.438,0,0,1,4.306,1.956H-8.617A1.439,1.439,0,0,1-10.053.522,1.441,1.441,0,0,1-8.617-.914H4.306A1.44,1.44,0,0,1,5.742.522" transform="translate(10.053 0.914)"/></g><g transform="translate(71.996 71.352)"><path class="c" d="M2.123,4.427-3.3-.992a1.432,1.432,0,0,1,0-2.03,1.435,1.435,0,0,1,2.03,0l3.2,3.2L8.1-7.233a1.436,1.436,0,0,1,2.022-.185A1.437,1.437,0,0,1,10.307-5.4Z" transform="translate(3.717 7.75)"/></g><g transform="translate(71.996 90.016)"><path class="c" d="M2.123,4.427-3.3-.992a1.432,1.432,0,0,1,0-2.03,1.432,1.432,0,0,1,2.03,0L1.932.172,8.1-7.233a1.434,1.434,0,0,1,2.022-.185A1.437,1.437,0,0,1,10.307-5.4Z" transform="translate(3.717 7.751)"/></g><g transform="translate(43.469 163.862)"><path class="g" d="M0,.1V13.589H46.833V-.171Z" transform="translate(0 0.171)"/></g><g transform="translate(40.796 30.706)"><path class="c" d="M13.181,39.82H25.7v5.452c0,7.52-6.6,10.4-6.874,10.52l-1.026.427v5.823H-16.009V25.317c0-5.661,6.063-10.745,10.341-13.628V29.738l-3.05,2.979L-6.4,35.1l.727-.71L5.9,23.089l10.854-10.6A10.64,10.64,0,0,1,20,18.5a8.289,8.289,0,0,1-2.442,6.373l-4.8,5.171-2.662,2.863L7.508,35.688l.746,1.1c.234.344,5.667,8.522-1.409,15.779l2.38,2.324A15.22,15.22,0,0,0,13.181,39.82M83.231-66.3a11.027,11.027,0,0,0-8.506-3.416H7.178c-4.371,0-7.736,1.207-10,3.589a10.714,10.714,0,0,0-2.842,7.276v52.01h3.689l0-52.1A7.043,7.043,0,0,1-.156-63.585c1.546-1.625,4.013-2.446,7.334-2.446H64.907a13.192,13.192,0,0,0-3.468,8.937l0,83.252L56.3,20.665,48.092,29.96l-8.31-9.278-8.827,9.389-7.922-8.346a10.055,10.055,0,0,0,.272-3.565c-.567-5.475-5.411-9.133-5.618-9.286L16.55,8.028-1.979,26.134l-.311.3V6.24L-5.615,7.69l-.053.033c-4.621,2.833-13.667,9.419-13.667,17.594V62.043h-3.742v15.52h3.326v-12.2h43.24v12.2h3.326V62.043H21.131V58.357a14.833,14.833,0,0,0,7.9-13.085V36.5H12.705c-.072-.145-.145-.3-.217-.435l.344-.371.009.009,9.224-9.3,8.9,9.385L39.7,26.5l8.421,9.4,8.286-9.378L61.442,31.9l3.633,3.887.053-.057V-57.095c0-1.491.46-8.937,9.6-8.937a7.413,7.413,0,0,1,5.782,2.214c1.911,2.069,2.393,5.174,2.5,7.08H70.1v3.689H86.538l.145-1.691c.025-.291.561-7.2-3.452-11.564" transform="translate(23.078 69.719)"/></g><path class="c" d="M31.726-1.2h5.82V-5.085h-5.82Z" transform="translate(18.12 175.084)"/></g></g></svg>