<svg xmlns="http://www.w3.org/2000/svg" xmlns:xlink="http://www.w3.org/1999/xlink" viewBox="896 324 128.763 113.909"><defs><style>.a,.c{fill:none;}.b{clip-path:url(#a);}.c{stroke:#007eff;stroke-width:0.131px;}.d{clip-path:url(#b);}.e{fill:#d9f0ff;}.f{fill:#f1f1f1;}.g{fill:#007eff;}</style><clipPath id="a"><path class="a" d="M5.029-38.365A45.344,45.344,0,0,0,48.652,6.941h0V-46.723S46.393-58.955,67.4-57.359H91.557A45.346,45.346,0,0,0,50.378-83.714h0A45.349,45.349,0,0,0,5.029-38.365" transform="translate(-5.029 83.714)"/></clipPath><clipPath id="b"><path class="a" d="M0-83.78H128.763V30.129H0Z" transform="translate(0 83.78)"/></clipPath></defs><g transform="translate(896 324)"><g class="b" transform="translate(6.838 0.09)"><g transform="translate(-6.838 0.001)"><path class="c" d="M0,0H102.265"/></g><g transform="translate(-6.838 2.013)"><path class="c" d="M0,0H102.265"/></g><g transform="translate(-6.838 4.027)"><path class="c" d="M0,0H102.265"/></g><g transform="translate(-6.838 6.04)"><path class="c" d="M0,0H102.265"/></g><g transform="translate(-6.838 8.052)"><path class="c" d="M0,0H102.265"/></g><g transform="translate(-6.838 10.065)"><path class="c" d="M0,0H102.265"/></g><g transform="translate(-6.838 12.079)"><path class="c" d="M0,0H102.265"/></g><g transform="translate(-6.838 14.092)"><path class="c" d="M0,0H102.265"/></g><g transform="translate(-6.838 16.105)"><path class="c" d="M0,0H102.265"/></g><g transform="translate(-6.838 18.118)"><path class="c" d="M0,0H102.265"/></g><g transform="translate(-6.838 20.13)"><path class="c" d="M0,0H102.265"/></g><g transform="translate(-6.838 22.144)"><path class="c" d="M0,0H102.265"/></g><g transform="translate(-6.838 24.157)"><path class="c" d="M0,0H102.265"/></g><g transform="translate(-6.838 26.17)"><path class="c" d="M0,0H102.265"/></g><g transform="translate(-6.838 28.182)"><path class="c" d="M0,0H102.265"/></g><g transform="translate(-6.838 30.195)"><path class="c" d="M0,0H102.265"/></g><g transform="translate(-6.838 32.208)"><path class="c" d="M0,0H102.265"/></g><g transform="translate(-6.838 34.222)"><path class="c" d="M0,0H102.265"/></g><g transform="translate(-6.838 36.235)"><path class="c" d="M0,0H102.265"/></g><g transform="translate(-6.838 38.247)"><path class="c" d="M0,0H102.265"/></g><g transform="translate(-6.838 40.26)"><path class="c" d="M0,0H102.265"/></g><g transform="translate(-6.838 42.273)"><path class="c" d="M0,0H102.265"/></g><g transform="translate(-6.838 44.287)"><path class="c" d="M0,0H102.265"/></g><g transform="translate(-6.838 46.3)"><path class="c" d="M0,0H102.265"/></g><g transform="translate(-6.838 48.312)"><path class="c" d="M0,0H102.265"/></g><g transform="translate(-6.838 50.325)"><path class="c" d="M0,0H102.265"/></g><g transform="translate(-6.838 52.338)"><path class="c" d="M0,0H102.265"/></g><g transform="translate(-6.838 54.352)"><path class="c" d="M0,0H102.265"/></g><g transform="translate(-6.838 56.364)"><path class="c" d="M0,0H102.265"/></g><g transform="translate(-6.838 58.377)"><path class="c" d="M0,0H102.265"/></g><g transform="translate(-6.838 60.39)"><path class="c" d="M0,0H102.265"/></g><g transform="translate(-6.838 62.404)"><path class="c" d="M0,0H102.265"/></g><g transform="translate(-6.838 64.416)"><path class="c" d="M0,0H102.265"/></g><g transform="translate(-6.838 66.428)"><path class="c" d="M0,0H102.265"/></g><g transform="translate(-6.838 68.442)"><path class="c" d="M0,0H102.265"/></g><g transform="translate(-6.838 70.455)"><path class="c" d="M0,0H102.265"/></g><g transform="translate(-6.838 72.468)"><path class="c" d="M0,0H102.265"/></g><g transform="translate(-6.838 74.48)"><path class="c" d="M0,0H102.265"/></g><g transform="translate(-6.838 76.494)"><path class="c" d="M0,0H102.265"/></g><g transform="translate(-6.838 78.508)"><path class="c" d="M0,0H102.265"/></g><g transform="translate(-6.838 80.521)"><path class="c" d="M0,0H102.265"/></g><g transform="translate(-6.838 82.533)"><path class="c" d="M0,0H102.265"/></g><g transform="translate(-6.838 84.546)"><path class="c" d="M0,0H102.265"/></g><g transform="translate(-6.838 86.56)"><path class="c" d="M0,0H102.265"/></g><g transform="translate(-6.838 88.573)"><path class="c" d="M0,0H102.265"/></g><g transform="translate(-6.838 90.584)"><path class="c" d="M0,0H102.265"/></g></g><g class="d" transform="translate(0 0)"><g transform="translate(20.768 34.655)"><path class="e" d="M.095,0A26.466,26.466,0,0,0,14.59,9.176c9.709,2.393,18.087,5.052,20.347,21.543L38.26,23.4s9.176,9.841,9.576,29.256A196.871,196.871,0,0,1,25.5,46.809l5.452-3.589a22.934,22.934,0,0,0-7.713-1.463c-4.122,0-14.1-3.724-17.288-13.963H14.59S-2.963,24.734.095,0" transform="translate(0.263)"/></g><g transform="translate(39.639 103.175)"><path class="e" d="M0,0H49.869S52.6,9.138,59.844,9.138H9.974S0,10.373,0,0"/></g><g transform="translate(78.793 37.215)"><path class="e" d="M4.811,2.405A9.094,9.094,0,0,1-4.284,11.5a9.094,9.094,0,0,1-9.094-9.094A9.094,9.094,0,0,1-4.284-6.689,9.094,9.094,0,0,1,4.811,2.405" transform="translate(13.378 6.689)"/></g><g transform="translate(82.06 50.912)"><path class="e" d="M0,0V23.372l5.826-5.685L11.3,23.372V1.829Z"/></g><g transform="translate(108.791 26.445)"><path class="f" d="M0,3.06H18.352s1.2-11.568-8.644-11.568S0,3.06,0,3.06" transform="translate(0 8.508)"/></g><g transform="translate(37.368 24.849)"><path class="g" d="M3.2,22.712a8.31,8.31,0,0,1-8.239-5.947h47.22a12.269,12.269,0,0,0,3.432,5.947ZM79.483-60.2a9.539,9.539,0,0,0-7.361-2.957H13.67c-3.781,0-6.695,1.044-8.657,3.105a9.28,9.28,0,0,0-2.46,6.3v6.663H5.746l0-6.741a6.094,6.094,0,0,1,1.58-4.016c1.339-1.406,3.474-2.117,6.347-2.117H63.626a11.423,11.423,0,0,0-3,7.734l0,67.5c0,.035.177,3.619-1.856,5.77a5.913,5.913,0,0,1-4.548,1.676c-7.49,0-9.066-6.3-9.066-7.542v-1.6H5.746V3.937H2.553v9.637H-8.892l.224,1.795C-8.211,19.011-5.145,25.9,3.2,25.9H54.224a9.034,9.034,0,0,0,6.886-2.7c2.978-3.169,2.717-7.936,2.707-8.037v-67.4c0-1.29.4-7.734,8.3-7.734a6.413,6.413,0,0,1,5,1.916,10.071,10.071,0,0,1,2.162,6.126H68.125v3.192H82.347l.125-1.463c.02-.252.484-6.23-2.988-10.005" transform="translate(8.892 63.156)"/></g><g transform="translate(17.468 26.069)"><path class="g" d="M2.483,9.622h8.643S-6.426,6.563-3.368-18.171A26.473,26.473,0,0,0,11.127-8.995C20.836-6.6,29.214-3.943,31.473,12.548L34.8,5.233s8.518,9.19,9.477,27.273L10.663-1.211a1.6,1.6,0,0,0-2.258,0,1.6,1.6,0,0,0,0,2.257L41.059,33.8a193.647,193.647,0,0,1-19.027-5.162l5.453-3.589a22.947,22.947,0,0,0-7.714-1.463c-4.121,0-14.1-3.724-17.288-13.963m12.3,19.966,6.235,2.08a198.016,198.016,0,0,0,22.753,5.956l1.353.258,6.226,6.246a1.6,1.6,0,0,0,1.13.468,1.575,1.575,0,0,0,1.126-.466,1.593,1.593,0,0,0,0-2.256l-6.022-6.041-.029-1.409C47.146,14.026,37.541,3.5,37.132,3.058l-3.26-3.5L32.334,2.944C27.9-8.145,19.174-10.3,11.892-12.094A23.174,23.174,0,0,1-.761-20.011l-4.763-6.746-1.013,8.2C-7.458-11.09-7.084-.828-.335,6.431H-1.854l1.29,4.141C2.758,21.229,12.842,26.4,19.087,26.759Z" transform="translate(6.906 26.757)"/></g><g transform="translate(77.027 35.643)"><path class="g" d="M2.872,5.745a10.789,10.789,0,0,0,3.946-.753V18.947L2.872,14.425l-3.944,4.522V4.992a10.788,10.788,0,0,0,3.944.753m0-18.529a7.67,7.67,0,0,1,7.67,7.668,7.669,7.669,0,0,1-7.67,7.668A7.669,7.669,0,0,1-4.8-5.116a7.67,7.67,0,0,1,7.668-7.668M-4.263,18.947v8.513l5.6-6.415,1.539-1.763,1.54,1.763,5.6,6.415V3.052a10.829,10.829,0,0,0,3.724-8.167A10.872,10.872,0,0,0,2.872-15.975,10.872,10.872,0,0,0-7.987-5.116,10.829,10.829,0,0,0-4.263,3.052v15.9Z" transform="translate(7.987 15.975)"/></g></g></g></svg>