<svg xmlns="http://www.w3.org/2000/svg" xmlns:xlink="http://www.w3.org/1999/xlink" viewBox="2907 324 122.478 105.369"><defs><style>.a,.c{fill:none;}.b{clip-path:url(#a);}.c{stroke:#007eff;stroke-width:0.168px;}.d{fill:#007eff;}.e{clip-path:url(#b);}.f{fill:#d9f0ff;}</style><clipPath id="a"><path class="a" d="M22.4-44.982A36.73,36.73,0,0,0,59.129-8.251h0A36.729,36.729,0,0,0,95.857-44.982h0A36.728,36.728,0,0,0,59.129-81.711h0A36.73,36.73,0,0,0,22.4-44.982M30.84-66.089H86.831v43.224H30.84Z" transform="translate(-22.397 81.711)"/></clipPath><clipPath id="b"><path class="a" d="M0-96.291H122.478V9.078H0Z" transform="translate(0 96.291)"/></clipPath></defs><g transform="translate(2907 324)"><g class="b" transform="translate(24.509 15.955)"><g transform="translate(-15.863 -1.53)"><path class="c" d="M0,0H105.187"/></g><g transform="translate(-15.863 0.541)"><path class="c" d="M0,0H105.187"/></g><g transform="translate(-15.863 2.611)"><path class="c" d="M0,0H105.187"/></g><g transform="translate(-15.863 4.681)"><path class="c" d="M0,0H105.187"/></g><g transform="translate(-15.863 6.752)"><path class="c" d="M0,0H105.187"/></g><g transform="translate(-15.863 8.823)"><path class="c" d="M0,0H105.187"/></g><g transform="translate(-15.863 10.893)"><path class="c" d="M0,0H105.187"/></g><g transform="translate(-15.863 12.963)"><path class="c" d="M0,0H105.187"/></g><g transform="translate(-15.863 15.034)"><path class="c" d="M0,0H105.187"/></g><g transform="translate(-15.863 17.105)"><path class="c" d="M0,0H105.187"/></g><g transform="translate(-15.863 19.174)"><path class="c" d="M0,0H105.187"/></g><g transform="translate(-15.863 21.244)"><path class="c" d="M0,0H105.187"/></g><g transform="translate(-15.863 23.315)"><path class="c" d="M0,0H105.187"/></g><g transform="translate(-15.863 25.386)"><path class="c" d="M0,0H105.187"/></g><g transform="translate(-15.863 27.458)"><path class="c" d="M0,0H105.187"/></g><g transform="translate(-15.863 29.527)"><path class="c" d="M0,0H105.187"/></g><g transform="translate(-15.863 31.597)"><path class="c" d="M0,0H105.187"/></g><g transform="translate(-15.863 33.668)"><path class="c" d="M0,0H105.187"/></g><g transform="translate(-15.863 35.739)"><path class="c" d="M0,0H105.187"/></g><g transform="translate(-15.863 37.809)"><path class="c" d="M0,0H105.187"/></g><g transform="translate(-15.863 39.879)"><path class="c" d="M0,0H105.187"/></g><g transform="translate(-15.863 41.95)"><path class="c" d="M0,0H105.187"/></g><g transform="translate(-15.863 44.021)"><path class="c" d="M0,0H105.187"/></g><g transform="translate(-15.863 46.091)"><path class="c" d="M0,0H105.187"/></g><g transform="translate(-15.863 48.161)"><path class="c" d="M0,0H105.187"/></g><g transform="translate(-15.863 50.232)"><path class="c" d="M0,0H105.187"/></g><g transform="translate(-15.863 52.303)"><path class="c" d="M0,0H105.187"/></g><g transform="translate(-15.863 54.373)"><path class="c" d="M0,0H105.187"/></g><g transform="translate(-15.863 56.443)"><path class="c" d="M0,0H105.187"/></g><g transform="translate(-15.863 58.514)"><path class="c" d="M0,0H105.187"/></g><g transform="translate(-15.863 60.585)"><path class="c" d="M0,0H105.187"/></g><g transform="translate(-15.863 62.656)"><path class="c" d="M0,0H105.187"/></g><g transform="translate(-15.863 64.726)"><path class="c" d="M0,0H105.187"/></g><g transform="translate(-15.863 66.796)"><path class="c" d="M0,0H105.187"/></g><g transform="translate(-15.863 68.867)"><path class="c" d="M0,0H105.187"/></g><g transform="translate(-15.863 70.938)"><path class="c" d="M0,0H105.187"/></g><g transform="translate(-15.863 73.008)"><path class="c" d="M0,0H105.187"/></g></g><g transform="translate(30.803 29.618)"><path class="d" d="M5.244,0H-55.625V47.6H5.244V0ZM1.961,44.318h-54.3V3.283h54.3Z" transform="translate(55.625)"/></g><path class="d" d="M72.6-52.973H41.962V-57.35H72.6Z" transform="translate(3.956 99.962)"/><path class="d" d="M66.436-45.848H47.149v-4.377H66.436Z" transform="translate(4.445 100.634)"/><g class="e"><g transform="translate(76.739 0)"><path class="d" d="M1.993,7.42A12.931,12.931,0,0,1,8.665,9.389s-3.5,5.858-10.2,5.858a14.946,14.946,0,0,1-7.375-2.164S-4.567,7.42,1.993,7.42M-16.435-74.734C-2.893-71.794-5.7-60.167-5.7-60.167-17.8-63.723-16.435-74.734-16.435-74.734M21.318-39.307s.343,14.5-10.669,14.7c0,0-1.572-12.242,10.669-14.7M9.213-61.4s7.66,9.37-2.8,17.235c0,0-6.086-11.08,2.8-17.235m8.512,47.089c.323,0,.654.01.994.034,0,0-.256,11.459-11.486,11.459-.376,0-.765-.012-1.167-.038,0,0,1.224-11.453,11.658-11.455m-6.241,25.38,1.686-2.823-2.828-1.68a16.223,16.223,0,0,0-8.348-2.43h0A14.824,14.824,0,0,0-.716,4.4,47.634,47.634,0,0,0,2.475-.159L2.439.2,5.85.421c.466.032.932.046,1.383.046,5.819,0,10.391-2.669,12.875-7.517A17.874,17.874,0,0,0,22-14.2l.071-3.142-3.136-.207c-.408-.028-.814-.04-1.209-.04h0a13.749,13.749,0,0,0-9.4,3.4A48.273,48.273,0,0,0,9.493-21.3l1.218-.024a12.567,12.567,0,0,0,9.064-3.826c4.9-5.108,4.848-13.317,4.826-14.235L24.508-43.3l-3.839.771c-6.356,1.278-9.871,4.843-11.692,8.7a48.129,48.129,0,0,0-1.7-6.884l1.1-.827c3.971-2.986,6.232-6.551,6.721-10.6a16.058,16.058,0,0,0-3.348-11.338L9.836-65.822,7.345-64.1A13.861,13.861,0,0,0,1.123-53.073a47.886,47.886,0,0,0-3.96-4.948l.332-1.377A15.7,15.7,0,0,0-4.4-70.74c-2.285-3.642-6.1-6.066-11.333-7.2l-3.512-.763-.442,3.565c-.592,4.766,1.378,14.687,13.069,18.121l.3.088a44.41,44.41,0,0,1,12.741,31.4c0,18.192-11.071,34.775-27.55,41.264l1.2,3.043a44.865,44.865,0,0,0,7.593-3.866l1.815,1.025a18.291,18.291,0,0,0,8.991,2.59c8.469,0,12.839-7.153,13.021-7.459" transform="translate(21.135 78.705)"/></g><g transform="translate(0 0)"><path class="d" d="M2.888,7.908a14.943,14.943,0,0,1-7.375,2.166c-6.7,0-10.2-5.859-10.2-5.859A12.925,12.925,0,0,1-8.017,2.246c6.559,0,10.9,5.662,10.9,5.662M-.327-65.341s-2.8-11.627,10.738-14.567c0,0,1.368,11.011-10.738,14.567M-16.673-29.777c-11.011-.2-10.669-14.7-10.669-14.7,12.243,2.462,10.669,14.7,10.669,14.7m4.24-19.56c-10.463-7.865-2.8-17.235-2.8-17.235,8.89,6.155,2.8,17.235,2.8,17.235m.341,41.309q-.6.039-1.167.039c-11.229,0-11.486-11.46-11.486-11.46.34-.023.671-.034.994-.034,10.434,0,11.658,11.455,11.658,11.455m7.6,21.384A18.285,18.285,0,0,0,4.5,10.765L6.318,9.74a44.785,44.785,0,0,0,7.593,3.866l1.2-3.043C-1.368,4.074-12.439-12.509-12.439-30.7A44.407,44.407,0,0,1,.3-62.1l.3-.089C12.29-65.626,14.26-75.548,13.668-80.314l-.443-3.565-3.512.763C4.478-81.979.665-79.556-1.62-75.914a15.7,15.7,0,0,0-1.9,11.343l.332,1.376a47.885,47.885,0,0,0-3.96,4.948A13.859,13.859,0,0,0-13.368-69.27l-2.493-1.725-1.917,2.346a16.058,16.058,0,0,0-3.348,11.338c.489,4.049,2.75,7.613,6.721,10.6l1.1.827A48.275,48.275,0,0,0-15-39c-1.821-3.856-5.337-7.42-11.692-8.7l-3.839-.771-.092,3.913c-.022.919-.07,9.127,4.826,14.235A12.572,12.572,0,0,0-16.735-26.5l1.219.023a48.127,48.127,0,0,0,1.169,7.106,13.749,13.749,0,0,0-9.4-3.4h0c-.4,0-.8.012-1.209.04l-3.135.207.07,3.142a17.881,17.881,0,0,0,1.893,7.154c2.484,4.847,7.056,7.517,12.875,7.517.451,0,.917-.015,1.383-.047l3.411-.224L-8.5-5.333A47.4,47.4,0,0,0-5.309-.777a14.727,14.727,0,0,0-2.708-.259h0a16.223,16.223,0,0,0-8.348,2.43l-2.828,1.68L-17.509,5.9c.182.305,4.552,7.46,13.021,7.46" transform="translate(30.628 83.879)"/></g><g transform="translate(51.883 62.34)"><path class="f" d="M1.612.806a9.355,9.355,0,0,1-9.355,9.355A9.355,9.355,0,0,1-17.1.806,9.355,9.355,0,0,1-7.743-8.549,9.355,9.355,0,0,1,1.612.806" transform="translate(17.098 8.549)"/></g><g transform="translate(55.245 76.43)"><path class="f" d="M0,0V24.04l5.993-5.848,5.633,5.848V1.881Z"/></g><g transform="translate(50.069 60.692)"><path class="d" d="M.962,1.925a11.1,11.1,0,0,0,4.059-.774V15.5L.962,10.854-3.094,15.5V1.151a11.082,11.082,0,0,0,4.056.774m0-19.058A7.89,7.89,0,0,1,8.851-9.245,7.889,7.889,0,0,1,.962-1.358,7.887,7.887,0,0,1-6.924-9.245,7.888,7.888,0,0,1,.962-17.133M-6.377,15.5v8.756l5.756-6.6L.962,15.847l1.583,1.817,5.758,6.6V-.845a11.141,11.141,0,0,0,3.83-8.4A11.185,11.185,0,0,0,.962-20.416,11.183,11.183,0,0,0-10.207-9.245a11.133,11.133,0,0,0,3.83,8.4V15.5Z" transform="translate(10.207 20.416)"/></g></g></g></svg>