<svg xmlns="http://www.w3.org/2000/svg" xmlns:xlink="http://www.w3.org/1999/xlink" viewBox="681 1258 133 116.709"><defs><style>.a,.e{fill:none;}.b{fill:#007efc;}.c{clip-path:url(#a);}.d{clip-path:url(#b);}.e{stroke:#007efc;stroke-width:0.168px;}.f{fill:#d9f0ff;}.g{fill:#007eff;}</style><clipPath id="a"><path class="a" d="M0-114.066H133V2.643H0Z" transform="translate(0 114.066)"/></clipPath><clipPath id="b"><path class="a" d="M14.37-67.991A40.133,40.133,0,0,0,34.016-33.467h0V-51.351L50.482-60.6s-8.074-35.98,26.808-40.471h0a39.971,39.971,0,0,0-22.76-7.075h0A40.16,40.16,0,0,0,14.37-67.991" transform="translate(-14.37 108.149)"/></clipPath></defs><g transform="translate(681 1258)"><g transform="translate(32.814 84.197)"><path class="b" d="M2.2,0V2.651l-50.562,26.4L-91.847,6.317V3.581h-3.07v4.6l46.554,24.334,53.631-28V0Z" transform="translate(94.917)"/></g><g transform="translate(32.814 75.185)"><path class="b" d="M2.2,0V2.65l-50.562,26.4L-91.847,6.317V3.581h-3.07v4.6l46.554,24.335,53.631-28V0Z" transform="translate(94.917)"/></g><g transform="translate(32.814 66.172)"><path class="b" d="M2.2,0V2.651l-50.562,26.4L-91.847,6.318V3.581h-3.07v4.6l46.554,24.334,53.631-28V0Z" transform="translate(94.917)"/></g><g transform="translate(32.815 50.353)"><path class="b" d="M1.9.062l13.236,6.63v.083l-50.563,26.4-43.227-22.6,9.643-5.364L-70.5,2.528-81.981,8.915V12.3l46.553,24.334,53.631-28V4.8L3.275-2.683Z" transform="translate(81.981 2.683)"/></g><g class="c"><g transform="translate(59.161 66.708)"><path class="b" d="M.48.156a29.609,29.609,0,0,1-19.01-6.874L-20.7-4.554A32.646,32.646,0,0,0,.48,3.225,32.654,32.654,0,0,0,21.586-4.494L19.422-6.659A29.613,29.613,0,0,1,.48.156" transform="translate(20.696 6.718)"/></g><g transform="translate(103.198 22.67)"><path class="b" d="M.049,0-2.116,2.164A29.613,29.613,0,0,1,4.759,21.176,29.619,29.619,0,0,1-2.066,40.131L.1,42.3a32.652,32.652,0,0,0,7.73-21.12A32.651,32.651,0,0,0,.049,0" transform="translate(2.116)"/></g><g transform="translate(59.217 11.041)"><path class="b" d="M.478.07a29.6,29.6,0,0,1,18.53,6.488l2.175-2.175A32.65,32.65,0,0,0,.478-3a32.655,32.655,0,0,0-21.12,7.73L-18.476,6.9A29.609,29.609,0,0,1,.478.07" transform="translate(20.642 3)"/></g><g transform="translate(47.531 22.738)"><path class="b" d="M.07.478A29.613,29.613,0,0,1,6.884-18.465L4.72-20.63A32.652,32.652,0,0,0-3,.478a32.65,32.65,0,0,0,7.382,20.7l2.175-2.175A29.6,29.6,0,0,1,.07.478" transform="translate(3 20.63)"/></g></g><g class="d" transform="translate(14.703 6.054)"><g transform="translate(-14.703 1.775)"><path class="e" d="M0,0H98.352"/></g><g transform="translate(-14.703 3.711)"><path class="e" d="M0,0H98.352"/></g><g transform="translate(-14.703 5.647)"><path class="e" d="M0,0H98.352"/></g><g transform="translate(-14.703 7.583)"><path class="e" d="M0,0H98.352"/></g><g transform="translate(-14.703 9.52)"><path class="e" d="M0,0H98.352"/></g><g transform="translate(-14.703 11.455)"><path class="e" d="M0,0H98.352"/></g><g transform="translate(-14.703 13.391)"><path class="e" d="M0,0H98.352"/></g><g transform="translate(-14.703 15.327)"><path class="e" d="M0,0H98.352"/></g><g transform="translate(-14.703 17.264)"><path class="e" d="M0,0H98.352"/></g><g transform="translate(-14.703 19.199)"><path class="e" d="M0,0H98.352"/></g><g transform="translate(-14.703 21.134)"><path class="e" d="M0,0H98.352"/></g><g transform="translate(-14.703 23.071)"><path class="e" d="M0,0H98.352"/></g><g transform="translate(-14.703 25.006)"><path class="e" d="M0,0H98.352"/></g><g transform="translate(-14.703 26.943)"><path class="e" d="M0,0H98.352"/></g><g transform="translate(-14.703 28.879)"><path class="e" d="M0,0H98.352"/></g><g transform="translate(-14.703 30.815)"><path class="e" d="M0,0H98.352"/></g><g transform="translate(-14.703 32.75)"><path class="e" d="M0,0H98.352"/></g><g transform="translate(-14.703 34.686)"><path class="e" d="M0,0H98.352"/></g><g transform="translate(-14.703 36.623)"><path class="e" d="M0,0H98.352"/></g><g transform="translate(-14.703 38.559)"><path class="e" d="M0,0H98.352"/></g><g transform="translate(-14.703 40.495)"><path class="e" d="M0,0H98.352"/></g><g transform="translate(-14.703 42.43)"><path class="e" d="M0,0H98.352"/></g><g transform="translate(-14.703 44.367)"><path class="e" d="M0,0H98.352"/></g><g transform="translate(-14.703 46.303)"><path class="e" d="M0,0H98.352"/></g><g transform="translate(-14.703 48.238)"><path class="e" d="M0,0H98.352"/></g><g transform="translate(-14.703 50.174)"><path class="e" d="M0,0H98.352"/></g><g transform="translate(-14.703 52.11)"><path class="e" d="M0,0H98.352"/></g><g transform="translate(-14.703 54.047)"><path class="e" d="M0,0H98.352"/></g><g transform="translate(-14.703 55.982)"><path class="e" d="M0,0H98.352"/></g><g transform="translate(-14.703 57.918)"><path class="e" d="M0,0H98.352"/></g><g transform="translate(-14.703 59.854)"><path class="e" d="M0,0H98.352"/></g><g transform="translate(-14.703 61.79)"><path class="e" d="M0,0H98.352"/></g><g transform="translate(-14.703 63.726)"><path class="e" d="M0,0H98.352"/></g><g transform="translate(-14.703 65.661)"><path class="e" d="M0,0H98.352"/></g><g transform="translate(-14.703 67.598)"><path class="e" d="M0,0H98.352"/></g><g transform="translate(-14.703 69.534)"><path class="e" d="M0,0H98.352"/></g><g transform="translate(-14.703 71.471)"><path class="e" d="M0,0H98.352"/></g><g transform="translate(-14.703 73.406)"><path class="e" d="M0,0H98.352"/></g><g transform="translate(-14.703 75.341)"><path class="e" d="M0,0H98.352"/></g><g transform="translate(-14.703 77.278)"><path class="e" d="M0,0H98.352"/></g><g transform="translate(-14.703 79.214)"><path class="e" d="M0,0H98.352"/></g><g transform="translate(-14.703 81.15)"><path class="e" d="M0,0H98.352"/></g></g><g class="c"><g transform="translate(65.42 25.384)"><path class="f" d="M.35.51V8.435q5.034-.215,5.036-3.7Q5.386,1.871.35.51M-2.825-9.181v-6.85q-5.181.238-5.18,3.247A2.472,2.472,0,0,0-7.147-11,11.8,11.8,0,0,0-2.825-9.181m0,17.306V-.4q-6.659-1.839-9.143-4.416A8.452,8.452,0,0,1-14.5-10.9a8.573,8.573,0,0,1,3.127-6.9,14.2,14.2,0,0,1,8.547-2.935v-1.289H.35v1.265q5.464.287,8.568,2.745a7.551,7.551,0,0,1,3.1,6.159c0,.3-.007.564-.024.787H4.549a4.233,4.233,0,0,0-1.12-3.2A5.916,5.916,0,0,0,.35-15.746v7.519q7.468,2.2,9.857,4.965a9.565,9.565,0,0,1,2.41,6.35,9.115,9.115,0,0,1-3.054,6.8Q6.554,12.756.35,12.947v3.6H-2.825V12.827q-6.9-.715-9.572-3.46a8.119,8.119,0,0,1-2.7-5.682c0-.175.025-.486.073-.931h7.8q-.121,4.3,4.392,5.371" transform="translate(15.095 22.023)"/></g><g transform="translate(67.126 23.678)"><path class="g" d="M.35.51V8.435q5.034-.215,5.036-3.7Q5.386,1.871.35.51M-2.825-9.181v-6.85q-5.181.238-5.18,3.247A2.472,2.472,0,0,0-7.147-11,11.8,11.8,0,0,0-2.825-9.181m0,17.306V-.4q-6.659-1.839-9.143-4.416A8.452,8.452,0,0,1-14.5-10.9a8.573,8.573,0,0,1,3.127-6.9,14.2,14.2,0,0,1,8.547-2.935v-1.289H.35v1.265q5.464.287,8.568,2.745a7.551,7.551,0,0,1,3.1,6.159c0,.3-.007.564-.024.787H4.549a4.233,4.233,0,0,0-1.12-3.2A5.916,5.916,0,0,0,.35-15.746v7.519q7.468,2.2,9.857,4.965a9.565,9.565,0,0,1,2.41,6.35,9.115,9.115,0,0,1-3.054,6.8Q6.554,12.756.35,12.947v3.6H-2.825V12.827q-6.9-.715-9.572-3.46a8.119,8.119,0,0,1-2.7-5.682c0-.175.025-.486.073-.931h7.8q-.121,4.3,4.392,5.371" transform="translate(15.095 22.023)"/></g></g></g></svg>