<svg xmlns="http://www.w3.org/2000/svg" xmlns:xlink="http://www.w3.org/1999/xlink" viewBox="-11299 947 62 46.981">
  <defs>
    <style>
      .cls-1 {
        fill: none;
      }

      .cls-2 {
        clip-path: url(#clip-path);
      }

      .cls-3 {
        fill: #007eff;
        fill-rule: evenodd;
      }
    </style>
    <clipPath id="clip-path">
      <path id="Path_4670" data-name="Path 4670" class="cls-1" d="M0-23.274H62V23.707H0Z" transform="translate(0 23.274)"/>
    </clipPath>
  </defs>
  <g id="Group_4891" data-name="Group 4891" transform="translate(-11299 947)">
    <g id="Group_4890" data-name="Group 4890" class="cls-2" transform="translate(0 0)">
      <g id="Group_4873" data-name="Group 4873" transform="translate(24.362 16.892)">
        <path id="Path_4653" data-name="Path 4653" class="cls-3" d="M.586,1.223A.966.966,0,1,1,.2-.67a25.482,25.482,0,0,1,2.6-.4C3.686-1.155,4.57-1.2,5.434-1.2s1.748.046,2.634.135a25.482,25.482,0,0,1,2.6.4.966.966,0,0,1-.386,1.893A23.588,23.588,0,0,0,7.879.856,24.393,24.393,0,0,0,5.434.737,24.393,24.393,0,0,0,2.99.856a23.549,23.549,0,0,0-2.4.367" transform="translate(0.575 1.201)"/>
      </g>
      <g id="Group_4874" data-name="Group 4874" transform="translate(0 10.998)">
        <path id="Path_4654" data-name="Path 4654" class="cls-3" d="M1.581,7.254a.966.966,0,0,1-1.817.658l-.63-1.73-.628-1.732A.97.97,0,0,1-.914,3.211L-.872,3.2,2.6,2.111c.063-.246.129-.491.2-.729v0c.127-.412.283-.832.46-1.254A13.52,13.52,0,0,1,8.153-5.814a13.586,13.586,0,0,1,2.283-1.231.967.967,0,0,1,1.266.515.969.969,0,0,1-.517,1.264A11.616,11.616,0,0,0,9.237-4.209,11.643,11.643,0,0,0,6.1-1.072,11.763,11.763,0,0,0,5.04.876c-.139.333-.273.7-.392,1.078-.107.349-.2.709-.275,1.066a.976.976,0,0,1-.668.773L.668,4.741l.283.781Z" transform="translate(1.552 7.122)"/>
      </g>
      <g id="Group_4875" data-name="Group 4875" transform="translate(8.1 17.142)">
        <path id="Path_4655" data-name="Path 4655" class="cls-3" d="M.386.384A2.581,2.581,0,0,1,3.977.317l.075.067a2.585,2.585,0,0,1,0,3.664l0,.006a2.583,2.583,0,0,1-3.662,0l0-.006A2.588,2.588,0,0,1,.38.384l0,0ZM2.215,1.563a.664.664,0,0,0-.466.19l0,0a.66.66,0,0,0,0,.929l0,.006a.673.673,0,0,0,.929,0l0-.006a.647.647,0,0,0,.188-.464.665.665,0,0,0-.19-.464L2.651,1.72a.671.671,0,0,0-.436-.157" transform="translate(0.379 0.377)"/>
      </g>
      <g id="Group_4876" data-name="Group 4876" transform="translate(10.404 8.537)">
        <path id="Path_4656" data-name="Path 4656" class="cls-3" d="M1.442,1.547a.967.967,0,0,1-1.8.719L-1.346-.191A.97.97,0,0,1-.809-1.449.968.968,0,0,1,.448-.912Z" transform="translate(1.415 1.518)"/>
      </g>
      <g id="Group_4877" data-name="Group 4877" transform="translate(40.641 36.528)">
        <path id="Path_4657" data-name="Path 4657" class="cls-3" d="M2.776.621A.966.966,0,1,1,4.635.092l1.716,6.02a.966.966,0,0,1-.44,1.1L2.2,9.683A.967.967,0,0,1,.868,9.418l-3.416-4.8A.967.967,0,0,1-2.319,3.27.967.967,0,0,1-.973,3.5L1.912,7.555,4.3,5.963Z" transform="translate(2.725 0.61)"/>
      </g>
      <g id="Group_4878" data-name="Group 4878" transform="translate(50.05 15.992)">
        <path id="Path_4658" data-name="Path 4658" class="cls-3" d="M.979,3.015a.97.97,0,0,1-.969.967.968.968,0,0,1-.971-.967A5.957,5.957,0,0,1,.789-1.206l0,0,0,0,0,0A5.96,5.96,0,0,1,5.012-2.96a.97.97,0,0,1,.971.969.97.97,0,0,1-.971.969A4.014,4.014,0,0,0,2.16.157l-.006,0A4.025,4.025,0,0,0,.979,3.015" transform="translate(0.961 2.96)"/>
      </g>
      <g id="Group_4879" data-name="Group 4879" transform="translate(55.056 15.992)">
        <path id="Path_4659" data-name="Path 4659" class="cls-3" d="M3.5,3.015a.97.97,0,0,1-1.94,0A4.033,4.033,0,0,0,.387.161l-.006,0A4.031,4.031,0,0,0-2.473-1.022a.969.969,0,0,1-.967-.969.969.969,0,0,1,.967-.969A5.97,5.97,0,0,1,1.75-1.212l0,.006A5.958,5.958,0,0,1,3.5,3.015" transform="translate(3.44 2.96)"/>
      </g>
      <g id="Group_4880" data-name="Group 4880" transform="translate(23.317 11.685)">
        <path id="Path_4660" data-name="Path 4660" class="cls-3" d="M9.041,14.441a.966.966,0,1,1,.824,1.748,24.563,24.563,0,0,1-3.311,1.276,25.573,25.573,0,0,1-3.518.807c-.4.065-.757.115-1.064.153-.351.04-.713.079-1.08.1-.325.026-.7.048-1.1.065-.428.014-.8.024-1.108.024a27.865,27.865,0,0,1-2.812-.145c-.694-.069-1.373-.164-2.025-.281l-.071-.014c-.654-.119-1.3-.26-1.928-.422a.966.966,0,0,1-.69-1.177.963.963,0,0,1,1.177-.692q.893.23,1.784.392l.061.008c.638.115,1.268.2,1.879.264a25.933,25.933,0,0,0,2.624.129c.406,0,.755-.006,1.032-.016h0c.307-.01.646-.034,1.023-.063.331-.024.67-.061,1.005-.1.38-.044.709-.091.989-.135a24,24,0,0,0,3.258-.749,22.682,22.682,0,0,0,3.048-1.177m9.431-14.6a.967.967,0,0,1,.836-1.08.966.966,0,0,1,1.08.836c.04.3.071.6.087.892.02.321.032.62.032.892A14.2,14.2,0,0,1,20.42,2.92a14.453,14.453,0,0,1-.26,1.522,14.608,14.608,0,0,1-.816,2.511,15.629,15.629,0,0,1-1.29,2.376.965.965,0,0,1-1.611-1.062A13.586,13.586,0,0,0,17.566,6.19a12.528,12.528,0,0,0,.711-2.172,12.059,12.059,0,0,0,.22-1.31,12.168,12.168,0,0,0,.073-1.326c0-.281-.008-.541-.022-.771v0c-.018-.26-.044-.519-.075-.765M7.557-12.31A.969.969,0,0,1,7-13.558a.971.971,0,0,1,1.25-.555c.285.111.553.22.793.323s.5.218.773.347c.258.119.511.244.753.367s.493.26.733.394.468.268.715.418l0,0v0c.258.159.5.309.692.44l.061.042c.184.123.386.264.6.416v0c.178.125.4.291.652.489s.5.4.727.6l.018.018q.318.276.666.6l0,0c.21.2.43.416.648.642l.057.063c.212.222.4.43.563.618a.969.969,0,0,1-.1,1.363.967.967,0,0,1-1.361-.1c-.182-.21-.353-.4-.509-.563l-.042-.04c-.178-.186-.373-.38-.581-.575l0,0h0c-.184-.174-.392-.359-.614-.551l0,0c-.22-.188-.442-.369-.66-.541-.147-.115-.349-.262-.589-.436V-9.8c-.161-.113-.343-.24-.545-.371l-.063-.04c-.232-.155-.442-.289-.622-.4v0c-.2-.121-.418-.248-.652-.38-.218-.121-.444-.246-.674-.361s-.46-.234-.69-.339c-.21-.1-.446-.206-.713-.317s-.5-.21-.731-.3" transform="translate(8.876 14.177)"/>
      </g>
      <g id="Group_4881" data-name="Group 4881" transform="translate(10.404 8.535)">
        <path id="Path_4661" data-name="Path 4661" class="cls-3" d="M.488.978A.969.969,0,0,1-.479.009.967.967,0,0,1,.488-.96c.438,0,.9.024,1.367.071s.908.117,1.348.206a13.2,13.2,0,0,1,1.28.329A12.808,12.808,0,0,1,5.734.1l0,0v0c.41.174.8.363,1.171.563l.071.04c.355.2.7.41,1.044.642v0a12.653,12.653,0,0,1,1.042.775c.341.283.662.575.957.868s.575.608.868.963.545.69.777,1.032a.968.968,0,0,1-1.6,1.084c-.216-.321-.44-.618-.662-.888a10.686,10.686,0,0,0-.749-.82c-.273-.273-.549-.523-.82-.749a10.945,10.945,0,0,0-.89-.662l0,0h0c-.285-.194-.583-.377-.892-.547l-.063-.032c-.335-.182-.674-.345-1.005-.486v0q-.509-.212-1.066-.386a10.725,10.725,0,0,0-1.1-.285c-.373-.077-.763-.135-1.151-.176C1.3,1,.906.978.488.978" transform="translate(0.479 0.96)"/>
      </g>
      <g id="Group_4882" data-name="Group 4882" transform="translate(23.146 -0.001)">
        <path id="Path_4662" data-name="Path 4662" class="cls-3" d="M6.224,1.068a7.217,7.217,0,0,1,0,10.212v0l0,0h0a7.2,7.2,0,0,1-5.1,2.116,7.225,7.225,0,1,1,0-14.449A7.207,7.207,0,0,1,6.224,1.068M6.4,6.177A5.29,5.29,0,0,0,1.117.89a5.287,5.287,0,1,0,0,10.574A5.267,5.267,0,0,0,4.853,9.921l0-.006A5.263,5.263,0,0,0,6.4,6.177" transform="translate(6.11 1.048)"/>
      </g>
      <g id="Group_4883" data-name="Group 4883" transform="translate(10.816 32.612)">
        <path id="Path_4663" data-name="Path 4663" class="cls-3" d="M.058.718A.966.966,0,1,1,1.76-.2,14.66,14.66,0,0,0,3.12,1.9,13.7,13.7,0,0,0,4.895,3.758.966.966,0,0,1,3.623,5.214,15.784,15.784,0,0,1,1.6,3.094,16.337,16.337,0,0,1,.058.718" transform="translate(0.057 0.705)"/>
      </g>
      <g id="Group_4884" data-name="Group 4884" transform="translate(2.51 28.195)">
        <path id="Path_4664" data-name="Path 4664" class="cls-3" d="M.489.978A.97.97,0,0,1-.48.009.97.97,0,0,1,.489-.96c.147,0,.335.006.559.018l.038,0c.18.01.355.024.523.04.22.02.406.046.551.069s.325.055.541.1c.161.032.343.075.527.123l.006,0v0c.188.048.365.1.519.147s.335.109.513.172l0,0v0c.151.057.313.123.491.2v0c.153.065.319.137.491.222l.057.028c.151.075.293.145.414.212l.008,0v0c.143.081.3.168.446.258l.061.04c.149.089.277.174.39.248l.028.02.39.277.022.016,0,0c.107.081.24.186.406.323s.295.248.4.347.244.228.38.363v0c.079.079.194.2.361.388l0,0c.095.107.214.24.341.4.115.139.226.281.329.418l.014.018.277.39A.966.966,0,1,1,8,4.983l-.277-.39-.258-.327-.283-.321,0,0,0,0-.3-.313h0v0c-.091-.091-.2-.194-.311-.3-.131-.119-.24-.212-.327-.287L5.9,2.772h0l-.367-.26-.3-.2-.057-.032-.382-.218-.339-.178-.046-.02c-.117-.057-.254-.117-.4-.178h0l-.006,0c-.115-.05-.254-.1-.406-.161h0L3.18,1.382c-.155-.048-.3-.089-.432-.121v0c-.127-.034-.275-.069-.434-.1l-.44-.077c-.186-.028-.343-.05-.454-.063C1.27,1.008,1.123.994.986.988H.951C.84.982.683.978.489.978" transform="translate(0.48 0.96)"/>
      </g>
      <g id="Group_4885" data-name="Group 4885" transform="translate(12.514 36.838)">
        <path id="Path_4665" data-name="Path 4665" class="cls-3" d="M3.754,2.035A.967.967,0,0,1,5.29,3.21L1.8,7.768A.968.968,0,0,1,.462,7.96l-3.72-2.481a.961.961,0,0,1-.377-1.1L-2-1.3A.971.971,0,0,1-.8-1.96a.966.966,0,0,1,.656,1.2L-1.6,4.266.815,5.874Z" transform="translate(3.686 1.998)"/>
      </g>
      <g id="Group_4886" data-name="Group 4886" transform="translate(56.307 20.999)">
        <path id="Path_4666" data-name="Path 4666" class="cls-3" d="M1.894.489a.97.97,0,0,1,1.94,0A4.71,4.71,0,0,1,2.449,3.828,4.7,4.7,0,0,1-.89,5.213a.968.968,0,0,1-.969-.971A.967.967,0,0,1-.89,3.275a2.777,2.777,0,0,0,1.968-.816A2.777,2.777,0,0,0,1.894.489" transform="translate(1.859 0.48)"/>
      </g>
      <g id="Group_4887" data-name="Group 4887" transform="translate(53.803 22.25)">
        <path id="Path_4667" data-name="Path 4667" class="cls-3" d="M0,.488a.97.97,0,0,1,1.94,0,1.53,1.53,0,0,0,.45,1.084,1.527,1.527,0,0,0,1.084.45.969.969,0,0,1,0,1.938A3.47,3.47,0,0,1,0,.488" transform="translate(0 0.479)"/>
      </g>
      <g id="Group_4888" data-name="Group 4888" transform="translate(53.803 20.997)">
        <path id="Path_4668" data-name="Path 4668" class="cls-3" d="M.979,1.12a.97.97,0,0,1-.969.969A.971.971,0,0,1-.961,1.12,2.223,2.223,0,0,1,1.259-1.1a.97.97,0,0,1,.969.971.967.967,0,0,1-.969.967.277.277,0,0,0-.2.083.286.286,0,0,0-.083.2" transform="translate(0.961 1.1)"/>
      </g>
      <g id="Group_4889" data-name="Group 4889" transform="translate(26.9 3.753)">
        <path id="Path_4669" data-name="Path 4669" class="cls-3" d="M1.752,0a.969.969,0,1,1,0,1.938,1.53,1.53,0,0,0-1.084.45L.632,2.42A1.539,1.539,0,0,0,.218,3.472a.97.97,0,0,1-.969.969.97.97,0,0,1-.969-.969A3.467,3.467,0,0,1-.761,1.08L-.7,1.017A3.454,3.454,0,0,1,1.752,0" transform="translate(1.72)"/>
      </g>
    </g>
  </g>
</svg>
