<svg xmlns="http://www.w3.org/2000/svg" xmlns:xlink="http://www.w3.org/1999/xlink" viewBox="-13803 892.811 46.379 46.379">
  <defs>
    <style>
      .cls-1 {
        fill: none;
      }

      .cls-2 {
        clip-path: url(#clip-path);
      }

      .cls-3 {
        fill: #007fff;
      }
    </style>
    <clipPath id="clip-path">
      <path id="Path_5015" data-name="Path 5015" class="cls-1" d="M0-24H46.379V22.379H0Z" transform="translate(0 24)"/>
    </clipPath>
  </defs>
  <g id="Group_5338" data-name="Group 5338" transform="translate(-13803 892.811)">
    <g id="Group_5337" data-name="Group 5337" class="cls-2">
      <g id="Group_5336" data-name="Group 5336">
        <path id="Path_5014" data-name="Path 5014" class="cls-3" d="M11.189,13.054a3.865,3.865,0,1,1,3.865-3.865,3.866,3.866,0,0,1-3.865,3.865m0-11.595a7.73,7.73,0,1,0,7.73,7.73,7.73,7.73,0,0,0-7.73-7.73M24.778,20.044l.075.077a1.932,1.932,0,0,1-2.732,2.732l-.075-.075L19.29,20.023a13.449,13.449,0,0,1-6.168,2.559v4a1.932,1.932,0,1,1-3.865,0v-4a13.449,13.449,0,0,1-6.168-2.559L.333,22.778l-.075.075a1.934,1.934,0,0,1-2.732,0,1.934,1.934,0,0,1,0-2.732l.075-.077L.356,17.29A13.455,13.455,0,0,1-2.2,11.122h-4A1.932,1.932,0,0,1-8.135,9.189,1.932,1.932,0,0,1-6.2,7.257h4A13.455,13.455,0,0,1,.356,1.089L-2.4-1.667l-.075-.073a1.936,1.936,0,0,1,0-2.734,1.934,1.934,0,0,1,2.732,0L.333-4.4,3.089-1.644A13.426,13.426,0,0,1,9.257-4.2v-4a1.932,1.932,0,0,1,1.932-1.932A1.932,1.932,0,0,1,13.122-8.2v4A13.426,13.426,0,0,1,19.29-1.644L22.046-4.4l.075-.077a1.934,1.934,0,0,1,2.732,0,1.936,1.936,0,0,1,0,2.734l-.075.073L22.023,1.089a13.455,13.455,0,0,1,2.557,6.168h4a1.932,1.932,0,1,1,0,3.865h-4a13.455,13.455,0,0,1-2.557,6.168Zm3.8-5.057a5.8,5.8,0,0,0,0-11.595h-.989a17.521,17.521,0,0,0-.705-1.7l.7-.7a5.8,5.8,0,0,0,0-8.2,5.8,5.8,0,0,0-8.2,0l-.7.7a16.819,16.819,0,0,0-1.7-.7V-8.2a5.8,5.8,0,0,0-5.8-5.8,5.8,5.8,0,0,0-5.8,5.8v.991a16.819,16.819,0,0,0-1.7.7l-.7-.7a5.8,5.8,0,0,0-8.2,0,5.8,5.8,0,0,0,0,8.2l.7.7a17.521,17.521,0,0,0-.705,1.7H-6.2a5.8,5.8,0,0,0-5.8,5.8,5.8,5.8,0,0,0,5.8,5.8h.989a17.521,17.521,0,0,0,.705,1.7l-.7.7a5.8,5.8,0,0,0,0,8.2,5.794,5.794,0,0,0,8.2,0l.7-.7a16.83,16.83,0,0,0,1.7.705v.989a5.8,5.8,0,0,0,11.595,0v-.989a16.83,16.83,0,0,0,1.7-.705l.7.7a5.8,5.8,0,1,0,8.2-8.2l-.7-.7a17.521,17.521,0,0,0,.705-1.7Z" transform="translate(12 14)"/>
      </g>
    </g>
  </g>
</svg>
