<svg xmlns="http://www.w3.org/2000/svg" xmlns:xlink="http://www.w3.org/1999/xlink" viewBox="2427.166 -1332.24 12.668 19.756"><defs><style>.a{fill:none;}.b{clip-path:url(#a);}.c{fill:#007eff;}</style><clipPath id="a"><path class="a" d="M0-16.031H19.756V-3.363H0Z" transform="translate(0 16.031)"/></clipPath></defs><g transform="translate(2439.834 -1332.24) rotate(90)"><g class="b" transform="translate(0 0)"><g transform="translate(0 0)"><path class="c" d="M-5.182-1.533l-5.543-5.543a.8.8,0,0,0-1.121,0,.794.794,0,0,0,0,1.12L-6.862-.972l-4.984,4.983a.794.794,0,0,0,0,1.12.794.794,0,0,0,.56.232.793.793,0,0,0,.56-.232L-5.182-.412a.79.79,0,0,0,0-1.121M-17.81-7.075a.794.794,0,0,0-1.12,0l-5.544,5.543a.793.793,0,0,0,0,1.121l5.544,5.543a.789.789,0,0,0,.559.232.794.794,0,0,0,.56-.232.792.792,0,0,0,0-1.12L-22.793-.972l4.983-4.983a.792.792,0,0,0,0-1.12" transform="translate(24.705 7.306)"/></g></g></g></svg>