<svg xmlns="http://www.w3.org/2000/svg" xmlns:xlink="http://www.w3.org/1999/xlink" viewBox="7315.59 401.473 155.997 73.527"><defs><style>.a{fill:none;}.b{clip-path:url(#a);}.c{fill:#001f3f;}</style><clipPath id="a"><path class="a" d="M0-59H156V14.527H0Z" transform="translate(0 59)"/></clipPath></defs><g transform="translate(7315.59 401.473)"><g class="b"><g transform="translate(69.504 21.182)"><path class="c" d="M.491.985A2.493,2.493,0,0,0,2.983-1.508,2.493,2.493,0,0,0,.491-4H.483c0,.026.007.051.007.077A2.494,2.494,0,0,1-1.994-1.429,2.488,2.488,0,0,0,.491.985" transform="translate(1.994 4)"/></g><g transform="translate(81.959 21.182)"><path class="c" d="M.491.985A2.493,2.493,0,0,0,2.983-1.508,2.493,2.493,0,0,0,.491-4H.482c0,.026.009.051.009.077A2.494,2.494,0,0,1-1.994-1.429,2.487,2.487,0,0,0,.491.985" transform="translate(1.994 4)"/></g><path class="c" d="M73.766-4.511H86.228V-7H73.766Z" transform="translate(18.163 71.803)"/><g transform="translate(0)"><path class="c" d="M24.543,14.034H17.511L13.433,2.819a7.475,7.475,0,0,0-1.549-2.2l3.673-1.644,1.474-.66V-7.462L15.86-8.194l-.925-.578L14.144-14.4v-3.75l-1.5-.649c-1.264-.547-1.388-1.3-1.434-1.585a5.446,5.446,0,0,1,.7-3.4l.656-1.159-.4-.8v-6.5l-.007-.1c0-.021,0-.076-.006-.15a6.337,6.337,0,0,1,1.76-4.434c1.666-1.695,4.444-2.582,8.262-2.639l2.339.036c5.068.08,8.38.49,9.841,1.219.523.26.566.282.566,1.225a2.963,2.963,0,0,1-.08.683l-.283,1.2.785.953a6.408,6.408,0,0,1,1.625,4.1v4.407l-.38.76.673,1.163a5.4,5.4,0,0,1,.719,3.43c-.044.263-.173,1.063-1.49,1.609l-1.539.637V-14.4l-.79,5.623-1,.624-1.17.733v5.7l1.478.658L37.357.68,37.413.7l.057.022,10.9,4.22a3.457,3.457,0,0,1,1.675,1.62l2.716,7.467H24.543Zm-41.482,0L-8.382.487l2.911-4.565L8.686,1.405A4.968,4.968,0,0,1,11.13,3.778l3.729,10.256ZM-19.964,3.817l2.323-2.33L-14.117,4.9l-3.87,6.126Zm-1.519-6.009h0L-31.525-7.2V-10.29l5.08,3.178h9.97l4.987-3.119v3.073l-9.952,4.965.363.35Zm-3.452,13.217-3.831-6.067,3.567-3.5.031.034-.052.052,2.266,2.264Zm-32.847,3.01,3.73-10.256a4.973,4.973,0,0,1,2.444-2.373l14.179-5.492,11.445,18.121Zm-6.155,0H-96.122l2.716-7.467a3.454,3.454,0,0,1,1.674-1.62l10.9-4.22L-80.778.7l.056-.025,3.9-1.736,1.479-.658v-5.7l-1.171-.733-1-.624-.789-5.623v-3.739l-1.54-.637c-1.316-.546-1.447-1.346-1.49-1.609a5.408,5.408,0,0,1,.719-3.43l.673-1.163-.379-.76v-4.407a6.406,6.406,0,0,1,1.624-4.1l.785-.953-.282-1.2a2.965,2.965,0,0,1-.081-.683c0-.943.042-.965.566-1.225,1.462-.729,4.773-1.139,9.843-1.219l2.339-.036c3.817.057,6.6.945,8.262,2.639a6.349,6.349,0,0,1,1.76,4.434c0,.074,0,.128-.006.15l-.007.1v6.5l-.4.8.654,1.159a5.445,5.445,0,0,1,.7,3.4c-.047.284-.171,1.038-1.436,1.585l-1.5.649v3.75L-58.3-8.773l-.925.578-1.17.733v5.776l1.473.66,3.7,1.655.059.026.061.022.187.072a7.465,7.465,0,0,0-1.437,2.067l-4.079,11.216ZM-33.982-5.645l8.261,4.12L-30.03,2.706l-4.987-7.887Zm17.506-15.219s0,4.989-4.985,4.989-4.985-4.989-4.985-4.989Zm-18.693-3.7V-44.945c4.161,2.8,8.488,2.956,13.708,2.934v0c3.244-.015,9.834.039,13.708-3.473V-24.56l-3.739,7.477h-1.246L-15.23-24.56H-27.692l-2.492,7.477h-1.246ZM-8.939-5.646l1.158.515-2.74,4.338-2.249,3.527-4.408-4.27Zm-28.7-22.142a2.975,2.975,0,0,1-1.19-1.907,6.627,6.627,0,0,1,.246-2.985c.3.6.622,1.244.945,1.888Zm32.361-3h.041l.989-1.979a6.669,6.669,0,0,1,.273,3.076,2.993,2.993,0,0,1-1.3,1.981Zm57.626,36.4a5.957,5.957,0,0,0-3.022-2.961L38.371-1.6l-3.9-1.736v-2.7l1.984-1.241.976-6.945v-2.247a4.625,4.625,0,0,0,3-3.509,7.907,7.907,0,0,0-1.022-5.081l.042-.085v-5a8.91,8.91,0,0,0-2.193-5.685,5.485,5.485,0,0,0,.146-1.254c0-2.821-.9-4.748-12.861-4.936v-.024c-.629-.01-1.28-.016-1.97-.016-12.422,0-12.951,7.925-12.922,9.612,0,.2.015.318.015.318v6.981L9.735-25a7.925,7.925,0,0,0-.989,5.027,4.6,4.6,0,0,0,2.906,3.471v2.286l.977,6.945,1.91,1.2V-3.3l-3.7,1.655L9.276-1.04-4.1-6.222-9-8.4v-3.391l2.49-1.558,1.225-8.719v-2.819a5.809,5.809,0,0,0,3.762-4.4A9.93,9.93,0,0,0-2.8-35.668l.054-.107v-6.27A11.189,11.189,0,0,0-5.5-49.182a6.92,6.92,0,0,0,.182-1.571c0-3.542-1.132-5.961-16.142-6.2v-.03c-.79-.012-1.606-.02-2.472-.02-15.593,0-16.254,9.945-16.22,12.063,0,.252.019.4.019.4v8.761s.035.072.087.176a9.941,9.941,0,0,0-1.242,6.31,5.763,5.763,0,0,0,3.648,4.354v2.869l1.226,8.719,2.4,1.5v3.491L-38.66-6.281-52.419-.954l-1.786-.692L-57.9-3.3v-2.78l1.909-1.2.977-6.945v-2.286a4.594,4.594,0,0,0,2.906-3.471A7.925,7.925,0,0,0-53.1-25l.07-.138v-6.981s.011-.118.015-.318c.027-1.687-.5-9.612-12.922-9.612-.69,0-1.342.006-1.972.016v.024c-11.959.188-12.861,2.115-12.861,4.936a5.485,5.485,0,0,0,.146,1.254,8.908,8.908,0,0,0-2.192,5.685v5l.042.085A7.906,7.906,0,0,0-83.8-19.977a4.624,4.624,0,0,0,3,3.509v2.247l.976,6.945,1.984,1.241v2.7l-3.9,1.736L-92.687,2.644a5.947,5.947,0,0,0-3.022,2.961l-3.972,10.922h156Z" transform="translate(99.681 57)"/></g></g></g></svg>