<svg xmlns="http://www.w3.org/2000/svg" xmlns:xlink="http://www.w3.org/1999/xlink" viewBox="9667.937 464.5 50.607 85.554"><defs><style>.a{fill:none;}.b{clip-path:url(#a);}.c{fill:#001f3e;}</style><clipPath id="a"><path class="a" d="M0-65.054H50.607V20.5H0Z" transform="translate(0 65.054)"/></clipPath></defs><g transform="translate(9667.937 464.5)"><g class="b" transform="translate(0 0)"><g transform="translate(9.522 32.81)"><path class="c" d="M6.933,6.3A1.316,1.316,0,0,1,5.618,7.618H-18.055A1.316,1.316,0,0,1-19.37,6.3V3.7c0-.305.758-1.3,3.009-2.24A27.526,27.526,0,0,1-6.219-.273,27.475,27.475,0,0,1,3.922,1.467c2.253.947,3.01,1.938,3.01,2.246ZM-11.479-12.109a5.261,5.261,0,0,1,5.26-5.26,5.261,5.261,0,0,1,5.26,5.26v3.945A5.261,5.261,0,0,1-6.219-2.9a5.261,5.261,0,0,1-5.26-5.26ZM-.737-2.49A7.863,7.863,0,0,0,1.672-8.164v-3.945A7.891,7.891,0,0,0-6.219-20a7.892,7.892,0,0,0-7.891,7.891v3.945A7.862,7.862,0,0,0-11.7-2.492C-17.713-1.555-22,.874-22,3.7V6.3a3.945,3.945,0,0,0,3.945,3.945H5.618A3.944,3.944,0,0,0,9.563,6.3V3.713c0-2.829-4.287-5.266-10.3-6.2" transform="translate(22 20)"/></g><g transform="translate(16.328 66.321)"><path class="c" d="M4.006.63H-11.4A1.315,1.315,0,0,1-12.713-.685,1.315,1.315,0,0,1-11.4-2h15.4A1.315,1.315,0,0,1,5.321-.685,1.315,1.315,0,0,1,4.006.63" transform="translate(12.713 2)"/></g><g transform="translate(35.141 76.367)"><path class="c" d="M.788.63H-1.185A1.315,1.315,0,0,1-2.5-.685,1.315,1.315,0,0,1-1.185-2H.788A1.315,1.315,0,0,1,2.1-.685,1.315,1.315,0,0,1,.788.63" transform="translate(2.5 2)"/></g><g transform="translate(17.295 76.367)"><path class="c" d="M1.384.63H-3.078A1.316,1.316,0,0,1-4.393-.685,1.316,1.316,0,0,1-3.078-2H1.384A1.315,1.315,0,0,1,2.7-.685,1.315,1.315,0,0,1,1.384.63m8.922,0H5.845A1.315,1.315,0,0,1,4.53-.685,1.315,1.315,0,0,1,5.845-2h4.461A1.315,1.315,0,0,1,11.621-.685,1.315,1.315,0,0,1,10.306.63" transform="translate(4.393 2)"/></g><g transform="translate(10.863 76.367)"><path class="c" d="M.788.63H-1.185A1.315,1.315,0,0,1-2.5-.685,1.315,1.315,0,0,1-1.185-2H.788A1.315,1.315,0,0,1,2.1-.685,1.315,1.315,0,0,1,.788.63" transform="translate(2.5 2)"/></g><g transform="translate(10.863 71.344)"><path class="c" d="M6.605.63H-19.646A1.315,1.315,0,0,1-20.961-.685,1.315,1.315,0,0,1-19.646-2H6.605A1.315,1.315,0,0,1,7.92-.685,1.315,1.315,0,0,1,6.605.63" transform="translate(20.961 2)"/></g><g transform="translate(0.254 60.427)"><path class="c" d="M11.677.63H-35.741A1.316,1.316,0,0,1-37.056-.685,1.316,1.316,0,0,1-35.741-2H11.677A1.315,1.315,0,0,1,12.992-.685,1.315,1.315,0,0,1,11.677.63" transform="translate(37.056 2)"/></g><g transform="translate(0.001 14.211)"><path class="c" d="M11.181,0H-31.536a3.949,3.949,0,0,0-3.945,3.945V67.4a3.949,3.949,0,0,0,3.945,3.945H11.181A3.95,3.95,0,0,0,15.126,67.4V3.945A3.95,3.95,0,0,0,11.181,0m0,2.63A1.319,1.319,0,0,1,12.5,3.945V67.4a1.319,1.319,0,0,1-1.315,1.315H-31.536A1.319,1.319,0,0,1-32.851,67.4V3.945A1.319,1.319,0,0,1-31.536,2.63H11.181" transform="translate(35.481)"/></g><g transform="translate(19.392 17.642)"><path class="c" d="M1.417,0A5.912,5.912,0,1,0,7.328,5.911,5.919,5.919,0,0,0,1.417,0m0,2.63A3.282,3.282,0,1,1-1.866,5.911,3.281,3.281,0,0,1,1.417,2.63" transform="translate(4.496)"/></g><g transform="translate(10.863 0.001)"><path class="c" d="M3.46,5.42a1.316,1.316,0,0,1-1.1-.593L-10.765-15.162a1.316,1.316,0,0,1,.377-1.821,1.317,1.317,0,0,1,1.82.377L4.559,3.382A1.315,1.315,0,0,1,3.46,5.42" transform="translate(10.981 17.198)"/></g><g transform="translate(27.82 0.001)"><path class="c" d="M.315,4.021a1.315,1.315,0,0,1-1.1-2.037L8.509-12.169a1.32,1.32,0,0,1,1.821-.377,1.316,1.316,0,0,1,.377,1.821L1.416,3.428a1.316,1.316,0,0,1-1.1.593" transform="translate(0.999 12.761)"/></g></g></g></svg>