<svg xmlns="http://www.w3.org/2000/svg" xmlns:xlink="http://www.w3.org/1999/xlink" viewBox="60 89.991 250 38.101"><defs><style>.a{fill:none;}.b{clip-path:url(#a);}.c{fill:#007fff;}</style><clipPath id="a"><path class="a" d="M0-26.193H250v38.1H0Z" transform="translate(0 26.193)"/></clipPath></defs><g transform="translate(60 89.99)"><g class="b" transform="translate(0 0)"><g transform="translate(0 1.717)"><path class="c" d="M9.184,8.618A2.073,2.073,0,0,1,8.768,9.64c-.047.047-.253.2-.927.2H-8.683V-16.6c0-.812.145-1.008.147-1.008s.164-.2.946-.391l.55-.138v-.822H-20.2v.8l.521.154a2.486,2.486,0,0,1,1.015.5c.051.045.209.247.209.908v30.45c0,.705-.154.88-.172.9a2.358,2.358,0,0,1-1.033.454l-.541.143v.848H7.842a2.547,2.547,0,0,1,1.081.137,1.035,1.035,0,0,1,.271.557l.144.54h.851V8.042H9.307Z" transform="translate(20.202 18.957)"/></g><g transform="translate(179.915 1.717)"><path class="c" d="M9.184,8.618A2.073,2.073,0,0,1,8.768,9.64c-.047.047-.253.2-.927.2H-8.683V-16.6c0-.812.145-1.008.147-1.008s.164-.2.946-.391l.55-.138v-.822H-20.2v.8l.521.154a2.486,2.486,0,0,1,1.015.5c.051.045.209.247.209.908v30.45c0,.705-.154.88-.172.9a2.358,2.358,0,0,1-1.033.454l-.541.143v.848H7.842a2.547,2.547,0,0,1,1.081.137,1.035,1.035,0,0,1,.271.557l.144.54h.851V8.042H9.307Z" transform="translate(20.202 18.957)"/></g><g transform="translate(38.544 -0.001)"><path class="c" d="M10.319,9.163a2.112,2.112,0,0,1-.409.988c-.009.006-.192.157-.991.157H-11.385V3.01H2.3c.717,0,.927.151.959.179a2.063,2.063,0,0,1,.441,1.017l.14.55h.8v-9.7H3.861L3.7-4.43a2.579,2.579,0,0,1-.464,1.036s-.186.141-.946.141H-11.385v-8.862H9.4c.378,0,.573.077.628.15a2.808,2.808,0,0,1,.41,1.036l.131.56h.855v-9.785h-.9l-.1.608c-.063.374-.143.513-.124.524-.1.032.063.586-1.213.586H-22.7v.82l.55.14a2.231,2.231,0,0,1,1.031.432c.007.007.164.185.164.916v30.45c0,.768-.164.941-.172.948a2.358,2.358,0,0,1-1.033.454l-.541.143v.848H8.972c1.069,0,1.1.111,1.1.112a1.008,1.008,0,0,1,.249.556l.129.566h.982V8.613h-.969Z" transform="translate(22.698 20.155)"/></g><g transform="translate(127.285 1.717)"><path class="c" d="M8.65,5.724H-.875L3.868-6.527ZM26.21,21.567a3.027,3.027,0,0,1-1.8-1.136,13.244,13.244,0,0,1-1.248-2.083L11.485-9.737a3.15,3.15,0,0,1-.252-.687.964.964,0,0,1,0-.468.759.759,0,0,1,.271-.342,2.5,2.5,0,0,1,.992-.4l.56-.132v-.829H-5.264v.81l.54.144a2.769,2.769,0,0,1,.931.394.766.766,0,0,1,.285.339.845.845,0,0,1,.026.435,2.575,2.575,0,0,1-.239.675l-11.692,28.1a13.379,13.379,0,0,1-1.266,2.119,3.024,3.024,0,0,1-1.8,1.136l-.551.137v.857H-4.838v-.889l-.592-.113c-.361-.07-.82-.212-.966-.5-.138-.272-.048-.769.282-1.465l.9-2.479h0l.016-.047.4-1.1h.019l1.51-3.977H11.073l2.05,5.333.908,2.34c.285.592.371,1.062.236,1.29a1.655,1.655,0,0,1-1.122.609l-.573.125v.874h14.19V21.7Z" transform="translate(19.026 12.591)"/></g><g transform="translate(81.141 0.128)"><path class="c" d="M12.219,5.97c0-.4.06-.915.346-1.106a2.91,2.91,0,0,1,1.308-.413l.617-.061V3.513H1.368V4.39l.617.061a2.9,2.9,0,0,1,1.306.413c.288.191.348.705.348,1.106l.015-.007V15.5A16.237,16.237,0,0,1-.058,16.909a16.935,16.935,0,0,1-9.483-.269,13.559,13.559,0,0,1-4.185-2.33,11.421,11.421,0,0,1-2.919-3.663A10.6,10.6,0,0,1-17.73,5.808,12.517,12.517,0,0,1-16.818.95,10.81,10.81,0,0,1-14.271-2.77a11.444,11.444,0,0,1,3.852-2.378c2.88-1.081,6.427-1.005,9.873-.371A15.439,15.439,0,0,1,4.111-3.856,7.464,7.464,0,0,1,5.436-2.788a.932.932,0,0,1,.305.868l-.092.5.726.343,5-9.487-.941-.409-.323.449a.67.67,0,0,1-.448.246,1.888,1.888,0,0,1-.567-.115c-2.169-.7-4.486-1.338-6.893-1.9a29.246,29.246,0,0,0-15.362.372A21.761,21.761,0,0,0-20.146-8.3a17.974,17.974,0,0,0-4.892,5.931,17.386,17.386,0,0,0-1.839,8.085,18.215,18.215,0,0,0,1.734,8.075,17.828,17.828,0,0,0,4.668,5.957,20.75,20.75,0,0,0,6.72,3.667,25.252,25.252,0,0,0,7.947,1.248,40.212,40.212,0,0,0,5.09-.337A40.217,40.217,0,0,0,4.466,23.3a36.438,36.438,0,0,0,4.9-1.673,21.707,21.707,0,0,0,4.265-2.384l.278-.2v-.739h-.685c-.508,0-1.005-.1-1.005-1.277V5.97Z" transform="translate(26.877 13.131)"/></g><g transform="translate(208.17 1.718)"><path class="c" d="M8.482,0V.86l.572.109c.643.122.829.4.914.6.051.121.182.438-.3,1.129l-7.4,12.744L-5.148,2.7c-.484-.691-.351-1.008-.3-1.129.083-.2.269-.48.914-.6L-3.964.86V0H-18.656V.807l.511.147a7.043,7.043,0,0,1,2.423,1.264,9.736,9.736,0,0,1,1.93,2.01L-2.75,22.746V32.758c0,.8-.147.986-.148.988a1.964,1.964,0,0,1-.947.412l-.527.137v.857H8.889v-.857l-.528-.137c-.733-.192-.918-.378-.944-.412,0,0-.151-.191-.151-.988V22.746L18.308,4.229a9.821,9.821,0,0,1,1.932-2.01A7.049,7.049,0,0,1,22.661.954l.513-.147V0Z" transform="translate(18.656)"/></g></g></g></svg>