<svg xmlns="http://www.w3.org/2000/svg" xmlns:xlink="http://www.w3.org/1999/xlink" viewBox="262 1263 118 106.573"><defs><style>.a,.b,.d{fill:none;}.b,.d{stroke:#007eff;}.b{stroke-width:3px;}.c{clip-path:url(#a);}.d{stroke-width:0.168px;}.e{fill:#007eff;}.f{fill:#d9f0ff;}.g{clip-path:url(#b);}</style><clipPath id="a"><path class="a" d="M20.478-55.034c0,.642.023,1.278.048,1.913h0l31.1-30.934s5.265-.188,11.47-.983h0c6.205-.795,9.4,1.946,9.4,1.946h0s24.071,23.673,28.02,28.059h0c3.95,4.387,1.881,5.917,1.881,5.917h0L61.625-7.953a48.024,48.024,0,0,0,6.37.436h0a47.516,47.516,0,0,0,47.516-47.516h0A47.517,47.517,0,0,0,67.994-102.55h0A47.517,47.517,0,0,0,20.478-55.034" transform="translate(-20.478 102.55)"/></clipPath><clipPath id="b"><path class="a" d="M0-103.634H118V2.939H0Z" transform="translate(0 103.634)"/></clipPath></defs><g transform="translate(262 1263)"><g transform="translate(50.829 43.469)"><path class="b" d="M0,0,20.4,20.4"/></g><g transform="translate(45.29 49.008)"><path class="b" d="M0,0,20.4,20.4"/></g><g transform="translate(39.75 54.548)"><path class="b" d="M0,0,14.857,14.857"/></g><g class="c" transform="translate(21.059 1.115)"><g transform="translate(-1.91 0.917)"><path class="d" d="M0,0H98.851"/></g><g transform="translate(-1.91 2.863)"><path class="d" d="M0,0H98.851" transform="translate(0 0)"/></g><g transform="translate(-1.91 4.81)"><path class="d" d="M0,0H98.851"/></g><g transform="translate(-1.91 6.755)"><path class="d" d="M0,0H98.851"/></g><g transform="translate(-1.91 8.7)"><path class="d" d="M0,0H98.851"/></g><g transform="translate(-1.91 10.646)"><path class="d" d="M0,0H98.851"/></g><g transform="translate(-1.91 12.593)"><path class="d" d="M0,0H98.851"/></g><g transform="translate(-1.91 14.539)"><path class="d" d="M0,0H98.851"/></g><g transform="translate(-1.91 16.484)"><path class="d" d="M0,0H98.851"/></g><g transform="translate(-1.91 18.429)"><path class="d" d="M0,0H98.851"/></g><g transform="translate(-1.91 20.376)"><path class="d" d="M0,0H98.851"/></g><g transform="translate(-1.91 22.322)"><path class="d" d="M0,0H98.851"/></g><g transform="translate(-1.91 24.267)"><path class="d" d="M0,0H98.851"/></g><g transform="translate(-1.91 26.212)"><path class="d" d="M0,0H98.851"/></g><g transform="translate(-1.91 28.159)"><path class="d" d="M0,0H98.851"/></g><g transform="translate(-1.91 30.104)"><path class="d" d="M0,0H98.851"/></g><g transform="translate(-1.91 32.05)"><path class="d" d="M0,0H98.851"/></g><g transform="translate(-1.91 33.996)"><path class="d" d="M0,0H98.851"/></g><g transform="translate(-1.91 35.942)"><path class="d" d="M0,0H98.851"/></g><g transform="translate(-1.91 37.887)"><path class="d" d="M0,0H98.851"/></g><g transform="translate(-1.91 39.833)"><path class="d" d="M0,0H98.851"/></g><g transform="translate(-1.91 41.779)"><path class="d" d="M0,0H98.851"/></g><g transform="translate(-1.91 43.725)"><path class="d" d="M0,0H98.851"/></g><g transform="translate(-1.91 45.671)"><path class="d" d="M0,0H98.851"/></g><g transform="translate(-1.91 47.616)"><path class="d" d="M0,0H98.851"/></g><g transform="translate(-1.91 49.562)"><path class="d" d="M0,0H98.851"/></g><g transform="translate(-1.91 51.509)"><path class="d" d="M0,0H98.851"/></g><g transform="translate(-1.91 53.454)"><path class="d" d="M0,0H98.851"/></g><g transform="translate(-1.91 55.399)"><path class="d" d="M0,0H98.851"/></g><g transform="translate(-1.91 57.345)"><path class="d" d="M0,0H98.851"/></g><g transform="translate(-1.91 59.291)"><path class="d" d="M0,0H98.851"/></g><g transform="translate(-1.91 61.237)"><path class="d" d="M0,0H98.851"/></g><g transform="translate(-1.91 63.182)"><path class="d" d="M0,0H98.851"/></g><g transform="translate(-1.91 65.128)"><path class="d" d="M0,0H98.851"/></g><g transform="translate(-1.91 67.074)"><path class="d" d="M0,0H98.851"/></g><g transform="translate(-1.91 69.02)"><path class="d" d="M0,0H98.851"/></g><g transform="translate(-1.91 70.965)"><path class="d" d="M0,0H98.851"/></g><g transform="translate(-1.91 72.911)"><path class="d" d="M0,0H98.851"/></g><g transform="translate(-1.91 74.857)"><path class="d" d="M0,0H98.851"/></g><g transform="translate(-1.91 76.804)"><path class="d" d="M0,0H98.851"/></g><g transform="translate(-1.91 78.749)"><path class="d" d="M0,0H98.851"/></g><g transform="translate(-1.91 80.694)"><path class="d" d="M0,0H98.851"/></g><g transform="translate(-1.91 82.64)"><path class="d" d="M0,0H98.851"/></g><g transform="translate(-1.91 84.587)"><path class="d" d="M0,0H98.851"/></g><g transform="translate(-1.91 86.532)"><path class="d" d="M0,0H98.851"/></g><g transform="translate(-1.91 88.477)"><path class="d" d="M0,0H98.851"/></g><g transform="translate(-1.91 90.422)"><path class="d" d="M0,0H98.851"/></g><g transform="translate(-1.91 92.369)"><path class="d" d="M0,0H98.851"/></g><g transform="translate(-1.91 94.315)"><path class="d" d="M0,0H98.851"/></g><g transform="translate(-1.91 96.26)"><path class="d" d="M0,0H98.851"/></g></g><path class="e" d="M0-58.232H36.25v-3.085H0Z" transform="translate(0 104.834)"/><path class="f" d="M57.875-93.482H21.625v-3.085h36.25Z" transform="translate(0.613 103.834)"/><path class="e" d="M10.86-79.357H6.875v-3.085H10.86Z" transform="translate(0.195 104.235)"/><path class="e" d="M32.775-79.357H13.751v-3.085H32.775Z" transform="translate(0.39 104.235)"/><path class="e" d="M46.725-14.232H16v-3.085H46.725Z" transform="translate(0.454 106.082)"/><path class="f" d="M99.217-12.107H77.75v-3.085H99.217Z" transform="translate(2.205 106.142)"/><g transform="translate(50.319 19.222)"><path class="f" d="M0,.063,11.481,10.842,23.051-.573,20.907-2.206,1.612-1.884Z" transform="translate(0 2.206)"/></g><g transform="translate(53.075 23.279)"><path class="e" d="M.239.3-8.427-8.363l2.181-2.181L.239-4.06l6.6-6.605L9.024-8.483Z" transform="translate(8.427 10.665)"/></g><g class="g"><g transform="translate(23.962 17.808)"><path class="e" d="M2.221.872l-30.01-30.009a5.892,5.892,0,0,0-3.957-1.623l-17.184.128a5.957,5.957,0,0,0-3.914,1.638L-78.33-3.508h4.362l23.306-23.3a2.891,2.891,0,0,1,1.755-.735l17.182-.126a2.823,2.823,0,0,1,1.755.719L.04,3.054a1.031,1.031,0,0,1,0,1.454L-50.074,54.621a1.031,1.031,0,0,1-1.454,0L-60.7,45.444l-2.182,2.181,9.178,9.177a4.118,4.118,0,0,0,5.817,0L2.221,6.69a4.118,4.118,0,0,0,0-5.817" transform="translate(78.33 30.759)"/></g><g transform="translate(7.822 49.776)"><path class="e" d="M.093.382a1.031,1.031,0,0,1,0-1.454l10.22-10.219L8.13-13.473-2.088-3.254a4.119,4.119,0,0,0,0,5.818L22.407,27.058h4.362Z" transform="translate(3.291 13.473)"/></g></g></g></svg>