<svg xmlns="http://www.w3.org/2000/svg" xmlns:xlink="http://www.w3.org/1999/xlink" viewBox="1533 1253 140 126.167"><defs><style>.a,.d{fill:none;}.b{fill:#007efc;}.c{clip-path:url(#a);}.d{stroke:#007efc;stroke-width:0.15px;}.e{fill:#d9f0ff;}.f{clip-path:url(#b);}</style><clipPath id="a"><path class="a" d="M30.1-98.055A19.872,19.872,0,0,0,30.208-96h0A26.751,26.751,0,0,0,17.473-75.771h0A13.759,13.759,0,0,0,5.167-62.089h0a13.76,13.76,0,0,0,13.759,13.76h0A13.694,13.694,0,0,0,28-51.76h0a26.636,26.636,0,0,0,16.1,5.387h0a26.61,26.61,0,0,0,15.113-4.7h0v-35.79l15.32-15.458h32.889a34.98,34.98,0,0,0-26.443-12.048h0a34.915,34.915,0,0,0-15.9,3.815h0a19.677,19.677,0,0,0-15.251-7.222h0A19.724,19.724,0,0,0,30.1-98.055" transform="translate(-5.167 117.779)"/></clipPath><clipPath id="b"><path class="a" d="M0-123.535H140V2.631H0Z" transform="translate(0 123.535)"/></clipPath></defs><g transform="translate(1533 1253)"><g transform="translate(80.957 58.382)"><path class="b" d="M.363.153H-2.7V-4.123H-14V.153h-3.063v-7.34H.363Z" transform="translate(17.062 7.187)"/></g><g transform="translate(80.957 68.849)"><path class="b" d="M.363.186H-2.7V-5.686H-14V.186h-3.063V-8.75H.363Z" transform="translate(17.062 8.75)"/></g><path class="b" d="M128.269-13.2H125.2V-45.247h3.064Z" transform="translate(2.667 125.203)"/><path class="b" d="M128.269-50.92H125.2v-3.7h3.064Z" transform="translate(2.667 125.003)"/><path class="b" d="M128.269-59.111H125.2v-3.511h3.064Z" transform="translate(2.667 124.833)"/><path class="b" d="M128.269-68.42H125.2v-3.7h3.064Z" transform="translate(2.667 124.63)"/><path class="b" d="M134.08-62.588h3.064v-37.585H134.08Z" transform="translate(2.856 124.033)"/><path class="b" d="M48.644-25.448H45.58v-32.3h3.064Z" transform="translate(0.971 124.936)"/><g class="c" transform="translate(5.277 5.879)"><g transform="translate(-5.277 -0.004)"><path class="d" d="M0,0H115.15"/></g><g transform="translate(-5.277 1.928)"><path class="d" d="M0,0H115.15"/></g><g transform="translate(-5.277 3.86)"><path class="d" d="M0,0H115.15"/></g><g transform="translate(-5.277 5.793)"><path class="d" d="M0,0H115.15"/></g><g transform="translate(-5.277 7.726)"><path class="d" d="M0,0H115.15"/></g><g transform="translate(-5.277 9.659)"><path class="d" d="M0,0H115.15" transform="translate(0 0)"/></g><g transform="translate(-5.277 11.591)"><path class="d" d="M0,0H115.15"/></g><g transform="translate(-5.277 13.522)"><path class="d" d="M0,0H115.15"/></g><g transform="translate(-5.277 15.455)"><path class="d" d="M0,0H115.15"/></g><g transform="translate(-5.277 17.388)"><path class="d" d="M0,0H115.15"/></g><g transform="translate(-5.277 19.32)"><path class="d" d="M0,0H115.15"/></g><g transform="translate(-5.277 21.252)"><path class="d" d="M0,0H115.15"/></g><g transform="translate(-5.277 23.185)"><path class="d" d="M0,0H115.15"/></g><g transform="translate(-5.277 25.117)"><path class="d" d="M0,0H115.15"/></g><g transform="translate(-5.277 27.05)"><path class="d" d="M0,0H115.15"/></g><g transform="translate(-5.277 28.983)"><path class="d" d="M0,0H115.15"/></g><g transform="translate(-5.277 30.914)"><path class="d" d="M0,0H115.15"/></g><g transform="translate(-5.277 32.846)"><path class="d" d="M0,0H115.15"/></g><g transform="translate(-5.277 34.779)"><path class="d" d="M0,0H115.15"/></g><g transform="translate(-5.277 36.712)"><path class="d" d="M0,0H115.15"/></g><g transform="translate(-5.277 38.645)"><path class="d" d="M0,0H115.15"/></g><g transform="translate(-5.277 40.577)"><path class="d" d="M0,0H115.15"/></g><g transform="translate(-5.277 42.509)"><path class="d" d="M0,0H115.15"/></g><g transform="translate(-5.277 44.442)"><path class="d" d="M0,0H115.15"/></g><g transform="translate(-5.277 46.375)"><path class="d" d="M0,0H115.15"/></g><g transform="translate(-5.277 48.307)"><path class="d" d="M0,0H115.15"/></g><g transform="translate(-5.277 50.238)"><path class="d" d="M0,0H115.15"/></g><g transform="translate(-5.277 52.171)"><path class="d" d="M0,0H115.15"/></g><g transform="translate(-5.277 54.104)"><path class="d" d="M0,0H115.15"/></g><g transform="translate(-5.277 56.036)"><path class="d" d="M0,0H115.15"/></g><g transform="translate(-5.277 57.968)"><path class="d" d="M0,0H115.15"/></g><g transform="translate(-5.277 59.901)"><path class="d" d="M0,0H115.15"/></g><g transform="translate(-5.277 61.834)"><path class="d" d="M0,0H115.15"/></g><g transform="translate(-5.277 63.766)"><path class="d" d="M0,0H115.15"/></g><g transform="translate(-5.277 65.698)"><path class="d" d="M0,0H115.15"/></g><g transform="translate(-5.277 67.63)"><path class="d" d="M0,0H115.15"/></g><g transform="translate(-5.277 69.563)"><path class="d" d="M0,0H115.15"/></g><g transform="translate(-5.277 71.496)"><path class="d" d="M0,0H115.15"/></g><g transform="translate(-5.277 73.428)"><path class="d" d="M0,0H115.15"/></g><g transform="translate(-5.277 75.36)"><path class="d" d="M0,0H115.15"/></g><g transform="translate(-5.277 77.293)"><path class="d" d="M0,0H115.15"/></g><g transform="translate(-5.277 79.226)"><path class="d" d="M0,0H115.15"/></g><g transform="translate(-5.277 81.158)"><path class="d" d="M0,0H115.15"/></g></g><g transform="translate(59.317 22.761)"><path class="e" d="M.332.012v15h-15.9L-.5-.584Z" transform="translate(15.573 0.584)"/></g><g class="f"><g transform="translate(57.651 20.796)"><path class="b" d="M1.219,0H-39.46a5.889,5.889,0,0,0-3.91,1.619l-12.239,12.24a5.889,5.889,0,0,0-1.62,3.91V70.305a4.09,4.09,0,0,0,4.085,4.085H1.219A4.09,4.09,0,0,0,5.3,70.305V4.085A4.09,4.09,0,0,0,1.219,0m0,3.064A1.024,1.024,0,0,1,2.24,4.085v66.22a1.024,1.024,0,0,1-1.021,1.021H-53.144a1.025,1.025,0,0,1-1.021-1.021V17.769a2.845,2.845,0,0,1,.723-1.743L-41.2,3.786a2.841,2.841,0,0,1,1.743-.722H1.219" transform="translate(57.229)"/></g><g transform="translate(64.232 27.519)"><path class="b" d="M.262.259H-12.313V-2.8H-2.8v-9.351H.262Z" transform="translate(12.313 12.156)"/></g><g transform="translate(74.295 82.994)"><path class="e" d="M.158,0H14.882V21.873h9.192L7.959,40.6-7.416,21.873h8.6Z" transform="translate(7.416)"/></g><g transform="translate(70.321 81.488)"><path class="b" d="M.137.517,12.945,15.711,26.107.517H18.545v-21.7H7.248V.517ZM12.913,20.429-6.451-2.547H4.184v-21.7H21.609v21.7H32.815Z" transform="translate(6.451 24.25)"/></g></g></g></svg>